# created with CityEngine 2012.1.09130547
# creation date: Wed Nov 06 00:15:44 2013

mtllib Generic_Stump_Fan.mtl

# mesh 'CreateFan'
v -0.853 0.000 0.000
v 0.000 0.000 0.002
v -0.853 0.600 0.000
v 0.000 0.600 0.002
v 0.853 0.000 0.000
v 0.000 0.000 -0.002
v 0.853 0.600 0.000
v 0.000 0.600 -0.002
v 0.000 0.000 0.853
v 0.002 0.000 0.000
v 0.000 0.600 0.853
v 0.002 0.600 0.000
v 0.000 0.000 -0.853
v -0.002 0.000 0.000
v 0.000 0.600 -0.853
v -0.002 0.600 0.000
# wrote 16 vertices

vn -0.78 0.56 0.28
vn 0.78 0.56 -0.28
vn 0.78 0.56 0.28
vn -0.78 0.56 -0.28
vn 0.28 0.56 0.78
vn -0.28 0.56 -0.78
vn 0.28 0.56 -0.78
vn -0.28 0.56 0.78
# wrote 8 vertex normals

vt 0.019 0.130
vt 0.500 0.130
vt 0.500 0.535
vt 0.019 0.535
vt 0.981 0.130
vt 0.981 0.535
# wrote 6 texture coordinates

g CreateFan
s off
usemtl CreateFan
f 1/1/1 2/2/1 4/3/1 3/4/1
f 5/5/2 6/2/2 8/3/2 7/6/2
f 5/5/3 7/6/3 4/3/3 2/2/3
f 1/1/4 3/4/4 8/3/4 6/2/4
f 9/1/5 10/2/5 12/3/5 11/4/5
f 13/5/6 14/2/6 16/3/6 15/6/6
f 13/5/7 15/6/7 12/3/7 10/2/7
f 9/1/8 11/4/8 16/3/8 14/2/8
# wrote 8 faces

