# created with CityEngine 2012.1.09130547
# creation date: Wed Nov 06 00:17:00 2013

mtllib Scots_Pine_Analytical.mtl

# mesh 'AnalyticalCrown'
v 2.978 7.360 5.157
v 5.157 7.360 2.978
v 5.955 7.360 0.000
v 5.157 7.360 -2.978
v 2.978 7.360 -5.157
v 0.000 7.360 -5.955
v -2.978 7.360 -5.157
v -5.157 7.360 -2.978
v -5.955 7.360 0.000
v -5.157 7.360 2.978
v -2.978 7.360 5.157
v 0.000 7.360 5.955
v 2.980 18.924 5.162
v 5.162 18.924 2.980
v 5.960 18.924 0.000
v 5.162 18.924 -2.980
v 2.980 18.924 -5.162
v 0.000 18.924 -5.960
v -2.980 18.924 -5.162
v -5.162 18.924 -2.980
v -5.960 18.924 0.000
v -5.162 18.924 2.980
v -2.980 18.924 5.162
v 0.000 18.924 5.960
v 2.815 22.019 4.875
v 4.875 22.019 2.815
v 5.630 22.019 0.000
v 4.875 22.019 -2.815
v 2.815 22.019 -4.875
v 0.000 22.019 -5.630
v -2.815 22.019 -4.875
v -4.875 22.019 -2.815
v -5.630 22.019 0.000
v -4.875 22.019 2.815
v -2.815 22.019 4.875
v 0.000 22.019 5.630
v 2.562 24.472 4.437
v 4.437 24.472 2.562
v 5.124 24.472 0.000
v 4.437 24.472 -2.562
v 2.562 24.472 -4.437
v 0.000 24.472 -5.124
v -2.562 24.472 -4.437
v -4.437 24.472 -2.562
v -5.124 24.472 0.000
v -4.437 24.472 2.562
v -2.562 24.472 4.437
v 0.000 24.472 5.124
v 2.226 26.586 3.856
v 3.856 26.586 2.226
v 4.453 26.586 0.000
v 3.856 26.586 -2.226
v 2.226 26.586 -3.856
v 0.000 26.586 -4.453
v -2.226 26.586 -3.856
v -3.856 26.586 -2.226
v -4.453 26.586 0.000
v -3.856 26.586 2.226
v -2.226 26.586 3.856
v 0.000 26.586 4.453
v 1.846 28.481 3.197
v 3.197 28.481 1.846
v 3.691 28.481 0.000
v 3.197 28.481 -1.846
v 1.846 28.481 -3.197
v 0.000 28.481 -3.691
v -1.846 28.481 -3.197
v -3.197 28.481 -1.846
v -3.691 28.481 0.000
v -3.197 28.481 1.846
v -1.846 28.481 3.197
v 0.000 28.481 3.691
v 1.259 30.503 2.180
v 2.180 30.503 1.259
v 2.518 30.503 0.000
v 2.180 30.503 -1.259
v 1.259 30.503 -2.180
v 0.000 30.503 -2.518
v -1.259 30.503 -2.180
v -2.180 30.503 -1.259
v -2.518 30.503 0.000
v -2.180 30.503 1.259
v -1.259 30.503 2.180
v 0.000 30.503 2.518
v 0.840 31.409 1.455
v 1.455 31.409 0.840
v 1.680 31.409 0.000
v 1.455 31.409 -0.840
v 0.840 31.409 -1.455
v 0.000 31.409 -1.680
v -0.840 31.409 -1.455
v -1.455 31.409 -0.840
v -1.680 31.409 0.000
v -1.455 31.409 0.840
v -0.840 31.409 1.455
v 0.000 31.409 1.680
v 0.078 32.000 0.135
v 0.135 32.000 0.078
v 0.156 32.000 0.000
v 0.135 32.000 -0.078
v 0.078 32.000 -0.135
v 0.000 32.000 -0.156
v -0.078 32.000 -0.135
v -0.135 32.000 -0.078
v -0.156 32.000 0.000
v -0.135 32.000 0.078
v -0.078 32.000 0.135
v 0.000 32.000 0.156
# wrote 108 vertices

vn 0.50 0.00 0.87
vn 0.87 0.00 0.50
vn 0.86 0.05 0.50
vn 0.50 0.05 0.86
vn 1.00 0.00 0.00
vn 1.00 0.05 0.00
vn 0.87 0.00 -0.50
vn 0.86 0.05 -0.50
vn 0.50 0.00 -0.87
vn 0.50 0.05 -0.86
vn 0.00 0.00 -1.00
vn 0.00 0.05 -1.00
vn -0.50 0.00 -0.87
vn -0.50 0.05 -0.86
vn -0.87 0.00 -0.50
vn -0.86 0.05 -0.50
vn -1.00 0.00 0.00
vn -1.00 0.05 0.00
vn -0.87 0.00 0.50
vn -0.86 0.05 0.50
vn -0.50 0.00 0.87
vn -0.50 0.05 0.86
vn 0.00 0.00 1.00
vn 0.00 0.05 1.00
vn 0.86 0.15 0.49
vn 0.49 0.15 0.86
vn 0.99 0.15 0.00
vn 0.86 0.15 -0.49
vn 0.49 0.15 -0.86
vn 0.00 0.15 -0.99
vn -0.49 0.15 -0.86
vn -0.86 0.15 -0.49
vn -0.99 0.15 0.00
vn -0.86 0.15 0.49
vn -0.49 0.15 0.86
vn 0.00 0.15 0.99
vn 0.84 0.25 0.48
vn 0.48 0.25 0.84
vn 0.97 0.25 0.00
vn 0.84 0.25 -0.48
vn 0.48 0.25 -0.84
vn 0.00 0.25 -0.97
vn -0.48 0.25 -0.84
vn -0.84 0.25 -0.48
vn -0.97 0.25 0.00
vn -0.84 0.25 0.48
vn -0.48 0.25 0.84
vn 0.00 0.25 0.97
vn 0.82 0.34 0.47
vn 0.47 0.34 0.82
vn 0.94 0.34 0.00
vn 0.82 0.34 -0.47
vn 0.47 0.34 -0.82
vn 0.00 0.34 -0.94
vn -0.47 0.34 -0.82
vn -0.82 0.34 -0.47
vn -0.94 0.34 0.00
vn -0.82 0.34 0.47
vn -0.47 0.34 0.82
vn 0.00 0.34 0.94
vn 0.78 0.44 0.45
vn 0.45 0.44 0.78
vn 0.90 0.44 0.00
vn 0.78 0.44 -0.45
vn 0.45 0.44 -0.78
vn 0.00 0.44 -0.90
vn -0.45 0.44 -0.78
vn -0.78 0.44 -0.45
vn -0.90 0.44 0.00
vn -0.78 0.44 0.45
vn -0.45 0.44 0.78
vn 0.00 0.44 0.90
vn 0.70 0.59 0.40
vn 0.40 0.59 0.70
vn 0.81 0.59 0.00
vn 0.70 0.59 -0.40
vn 0.40 0.59 -0.70
vn 0.00 0.59 -0.81
vn -0.40 0.59 -0.70
vn -0.70 0.59 -0.40
vn -0.81 0.59 0.00
vn -0.70 0.59 0.40
vn -0.40 0.59 0.70
vn 0.00 0.59 0.81
vn 0.50 0.81 0.29
vn 0.29 0.81 0.50
vn 0.58 0.81 0.00
vn 0.50 0.81 -0.29
vn 0.29 0.81 -0.50
vn 0.00 0.81 -0.58
vn -0.29 0.81 -0.50
vn -0.50 0.81 -0.29
vn -0.58 0.81 0.00
vn -0.50 0.81 0.29
vn -0.29 0.81 0.50
vn 0.00 0.81 0.58
vn 0.22 0.97 0.12
vn 0.12 0.97 0.22
vn 0.25 0.97 0.00
vn 0.22 0.97 -0.12
vn 0.12 0.97 -0.22
vn 0.00 0.97 -0.25
vn -0.12 0.97 -0.22
vn -0.22 0.97 -0.12
vn -0.25 0.97 0.00
vn -0.22 0.97 0.12
vn -0.12 0.97 0.22
vn 0.00 0.97 0.25
vn 0.00 -1.00 0.00
# wrote 109 vertex normals

vt 0.370 0.068
vt 0.370 0.002
vt 0.539 0.002
vt 0.539 0.068
vt 0.370 0.159
vt 0.539 0.159
vt 0.585 0.073
vt 0.585 0.159
vt 0.370 0.249
vt 0.539 0.249
vt 0.621 0.081
vt 0.621 0.159
vt 0.585 0.244
vt 0.370 0.315
vt 0.539 0.315
vt 0.585 0.011
vt 0.621 0.024
vt 0.652 0.091
vt 0.652 0.159
vt 0.621 0.237
vt 0.680 0.103
vt 0.680 0.159
vt 0.652 0.226
vt 0.680 0.215
vt 0.932 0.385
vt 0.932 0.476
vt 0.762 0.476
vt 0.762 0.385
vt 0.932 0.566
vt 0.762 0.566
vt 0.717 0.476
vt 0.717 0.390
vt 0.717 0.561
vt 0.681 0.476
vt 0.681 0.398
vt 0.762 0.319
vt 0.717 0.328
vt 0.762 0.633
vt 0.717 0.624
vt 0.681 0.554
vt 0.650 0.476
vt 0.650 0.408
vt 0.650 0.544
vt 0.622 0.476
vt 0.622 0.420
vt 0.681 0.341
vt 0.650 0.359
vt 0.681 0.611
vt 0.650 0.593
vt 0.622 0.532
vt 0.306 0.681
vt 0.306 0.615
vt 0.476 0.615
vt 0.476 0.681
vt 0.306 0.524
vt 0.476 0.524
vt 0.306 0.434
vt 0.476 0.434
vt 0.522 0.524
vt 0.522 0.610
vt 0.306 0.367
vt 0.476 0.367
vt 0.522 0.439
vt 0.558 0.524
vt 0.558 0.602
vt 0.558 0.446
vt 0.589 0.524
vt 0.589 0.592
vt 0.522 0.672
vt 0.558 0.659
vt 0.589 0.456
vt 0.616 0.524
vt 0.616 0.580
vt 0.616 0.468
vt 0.002 0.932
vt 0.002 0.841
vt 0.172 0.841
vt 0.172 0.932
vt 0.002 0.751
vt 0.172 0.751
vt 0.217 0.841
vt 0.217 0.927
vt 0.217 0.756
vt 0.253 0.841
vt 0.253 0.919
vt 0.172 0.998
vt 0.217 0.989
vt 0.172 0.685
vt 0.217 0.693
vt 0.253 0.763
vt 0.284 0.841
vt 0.284 0.909
vt 0.253 0.976
vt 0.253 0.707
vt 0.284 0.774
vt 0.312 0.841
vt 0.312 0.897
vt 0.284 0.958
vt 0.284 0.724
vt 0.312 0.785
vt 0.553 0.869
vt 0.503 0.919
vt 0.492 0.899
vt 0.533 0.858
vt 0.474 0.868
vt 0.502 0.840
vt 0.436 0.914
vt 0.436 0.878
vt 0.461 0.846
vt 0.480 0.827
vt 0.548 0.802
vt 0.512 0.802
vt 0.380 0.899
vt 0.398 0.868
vt 0.436 0.853
vt 0.438 0.806
vt 0.440 0.804
vt 0.487 0.802
vt 0.533 0.746
vt 0.502 0.763
vt 0.339 0.858
vt 0.370 0.840
vt 0.410 0.846
vt 0.436 0.806
vt 0.433 0.806
vt 0.432 0.804
vt 0.431 0.802
vt 0.432 0.799
vt 0.433 0.798
vt 0.436 0.797
vt 0.438 0.798
vt 0.440 0.799
vt 0.441 0.802
vt 0.480 0.776
vt 0.492 0.705
vt 0.474 0.735
vt 0.368 0.919
vt 0.319 0.869
vt 0.324 0.802
vt 0.359 0.802
vt 0.392 0.827
vt 0.385 0.802
vt 0.392 0.776
vt 0.410 0.757
vt 0.436 0.751
vt 0.461 0.757
vt 0.503 0.685
vt 0.553 0.734
vt 0.436 0.690
vt 0.436 0.725
vt 0.339 0.746
vt 0.370 0.763
vt 0.398 0.735
vt 0.380 0.705
vt 0.319 0.734
vt 0.368 0.685
vt 0.339 0.092
vt 0.364 0.183
vt 0.339 0.273
vt 0.273 0.339
vt 0.183 0.364
vt 0.092 0.339
vt 0.026 0.273
vt 0.002 0.183
vt 0.026 0.092
vt 0.092 0.026
vt 0.183 0.002
vt 0.273 0.026
# wrote 168 texture coordinates

g AnalyticalCrown
s off
usemtl AnalyticalCrown
f 1/1/1 2/2/2 14/3/3 13/4/4
f 2/25/2 3/26/5 15/27/6 14/28/3
f 3/26/5 4/29/7 16/30/8 15/27/6
f 4/51/7 5/52/9 17/53/10 16/54/8
f 5/52/9 6/55/11 18/56/12 17/53/10
f 6/55/11 7/57/13 19/58/14 18/56/12
f 7/57/13 8/61/15 20/62/16 19/58/14
f 8/75/15 9/76/17 21/77/18 20/78/16
f 9/76/17 10/79/19 22/80/20 21/77/18
f 10/14/19 11/9/21 23/10/22 22/15/20
f 11/9/21 12/5/23 24/6/24 23/10/22
f 12/5/23 1/1/1 13/4/4 24/6/24
f 13/36/4 14/28/3 26/32/25 25/37/26
f 14/28/3 15/27/6 27/31/27 26/32/25
f 15/27/6 16/30/8 28/33/28 27/31/27
f 16/30/8 17/38/10 29/39/29 28/33/28
f 17/53/10 18/56/12 30/59/30 29/60/29
f 18/56/12 19/58/14 31/63/31 30/59/30
f 19/86/14 20/78/16 32/82/32 31/87/31
f 20/78/16 21/77/18 33/81/33 32/82/32
f 21/77/18 22/80/20 34/83/34 33/81/33
f 22/80/20 23/88/22 35/89/35 34/83/34
f 23/10/22 24/6/24 36/8/36 35/13/35
f 24/6/24 13/4/4 25/7/26 36/8/36
f 25/7/26 26/16/25 38/17/37 37/11/38
f 26/32/25 27/31/27 39/34/39 38/35/37
f 27/31/27 28/33/28 40/40/40 39/34/39
f 28/69/28 29/60/29 41/65/41 40/70/40
f 29/60/29 30/59/30 42/64/42 41/65/41
f 30/59/30 31/63/31 43/66/43 42/64/42
f 31/87/31 32/82/32 44/85/44 43/93/43
f 32/82/32 33/81/33 45/84/45 44/85/44
f 33/81/33 34/83/34 46/90/46 45/84/45
f 34/83/34 35/89/35 47/94/47 46/90/46
f 35/13/35 36/8/36 48/12/48 47/20/47
f 36/8/36 25/7/26 37/11/38 48/12/48
f 37/46/38 38/35/37 50/42/49 49/47/50
f 38/35/37 39/34/39 51/41/51 50/42/49
f 39/34/39 40/40/40 52/43/52 51/41/51
f 40/40/40 41/48/41 53/49/53 52/43/52
f 41/65/41 42/64/42 54/67/54 53/68/53
f 42/64/42 43/66/43 55/71/55 54/67/54
f 43/93/43 44/85/44 56/92/56 55/98/55
f 44/85/44 45/84/45 57/91/57 56/92/56
f 45/84/45 46/90/46 58/95/58 57/91/57
f 46/90/46 47/94/47 59/99/59 58/95/58
f 47/20/47 48/12/48 60/19/60 59/23/59
f 48/12/48 37/11/38 49/18/50 60/19/60
f 49/101/50 50/102/49 62/103/61 61/104/62
f 50/42/49 51/41/51 63/44/63 62/45/61
f 51/41/51 52/43/52 64/50/64 63/44/63
f 52/137/52 53/138/53 65/121/65 64/113/64
f 53/68/53 54/67/54 66/72/66 65/73/65
f 54/67/54 55/71/55 67/74/67 66/72/66
f 55/155/55 56/156/56 68/154/68 67/151/67
f 56/92/56 57/91/57 69/96/69 68/97/68
f 57/91/57 58/95/58 70/100/70 69/96/69
f 58/147/58 59/148/59 71/119/71 70/135/70
f 59/23/59 60/19/60 72/22/72 71/24/71
f 60/19/60 49/18/50 61/21/62 72/22/72
f 61/104/62 62/103/61 74/105/73 73/106/74
f 62/103/61 63/107/63 75/108/75 74/105/73
f 63/107/63 64/113/64 76/114/76 75/108/75
f 64/113/64 65/121/65 77/122/77 76/114/76
f 65/121/65 66/139/66 78/140/78 77/122/77
f 66/139/66 67/151/67 79/152/79 78/140/78
f 67/151/67 68/154/68 80/153/80 79/152/79
f 68/154/68 69/149/69 81/150/81 80/153/80
f 69/149/69 70/135/70 82/136/82 81/150/81
f 70/135/70 71/119/71 83/120/83 82/136/82
f 71/119/71 72/111/72 84/112/84 83/120/83
f 72/111/72 61/104/62 73/106/74 84/112/84
f 73/106/74 74/105/73 86/109/85 85/110/86
f 74/105/73 75/108/75 87/115/87 86/109/85
f 75/108/75 76/114/76 88/123/88 87/115/87
f 76/114/76 77/122/77 89/141/89 88/123/88
f 77/122/77 78/140/78 90/142/90 89/141/89
f 78/140/78 79/152/79 91/143/91 90/142/90
f 79/152/79 80/153/80 92/144/92 91/143/91
f 80/153/80 81/150/81 93/145/93 92/144/92
f 81/150/81 82/136/82 94/146/94 93/145/93
f 82/136/82 83/120/83 95/134/95 94/146/94
f 83/120/83 84/112/84 96/118/96 95/134/95
f 84/112/84 73/106/74 85/110/86 96/118/96
f 85/110/86 86/109/85 98/116/97 97/117/98
f 86/109/85 87/115/87 99/124/99 98/116/97
f 87/115/87 88/123/88 100/125/100 99/124/99
f 88/123/88 89/141/89 101/126/101 100/125/100
f 89/141/89 90/142/90 102/127/102 101/126/101
f 90/142/90 91/143/91 103/128/103 102/127/102
f 91/143/91 92/144/92 104/129/104 103/128/103
f 92/144/92 93/145/93 105/130/105 104/129/104
f 93/145/93 94/146/94 106/131/106 105/130/105
f 94/146/94 95/134/95 107/132/107 106/131/106
f 95/134/95 96/118/96 108/133/108 107/132/107
f 96/118/96 85/110/86 97/117/98 108/133/108
f 1/157/109 12/158/109 11/159/109 10/160/109 9/161/109 8/162/109 7/163/109 6/164/109 5/165/109 4/166/109 3/167/109 2/168/109
f 97/117/98 98/116/97 99/124/99 100/125/100 101/126/101 102/127/102 103/128/103 104/129/104 105/130/105 106/131/106 107/132/107 108/133/108
# wrote 98 faces

# mesh 'AnalyticalTrunk'
v 0.195 0.000 0.338
v 0.338 0.000 0.195
v 0.390 0.000 0.000
v 0.338 0.000 -0.195
v 0.195 0.000 -0.338
v 0.000 0.000 -0.390
v -0.195 0.000 -0.338
v -0.338 0.000 -0.195
v -0.390 0.000 0.000
v -0.338 0.000 0.195
v -0.195 0.000 0.338
v 0.000 0.000 0.390
v 0.195 13.520 0.338
v 0.338 13.520 0.195
v 0.390 13.520 0.000
v 0.338 13.520 -0.195
v 0.195 13.520 -0.338
v 0.000 13.520 -0.390
v -0.195 13.520 -0.338
v -0.338 13.520 -0.195
v -0.390 13.520 0.000
v -0.338 13.520 0.195
v -0.195 13.520 0.338
v 0.000 13.520 0.390
# wrote 24 vertices

vn 0.50 0.00 0.87
vn 0.87 0.00 0.50
vn 1.00 0.00 0.00
vn 0.87 0.00 -0.50
vn 0.50 0.00 -0.87
vn 0.00 0.00 -1.00
vn -0.50 0.00 -0.87
vn -0.87 0.00 -0.50
vn -1.00 0.00 0.00
vn -0.87 0.00 0.50
vn -0.50 0.00 0.87
vn 0.00 0.00 1.00
vn 0.00 -1.00 0.00
vn 0.00 1.00 0.00
# wrote 14 vertex normals

vt 0.167 0.002
vt 0.227 0.002
vt 0.227 0.332
vt 0.167 0.332
vt 0.084 0.002
vt 0.084 0.332
vt 0.002 0.002
vt 0.002 0.332
vt 0.398 0.332
vt 0.316 0.332
vt 0.316 0.002
vt 0.398 0.002
vt 0.234 0.332
vt 0.234 0.002
vt 0.404 0.002
vt 0.464 0.002
vt 0.464 0.332
vt 0.404 0.332
vt 0.547 0.002
vt 0.547 0.332
vt 0.629 0.002
vt 0.629 0.332
vt 0.634 0.002
vt 0.694 0.002
vt 0.694 0.332
vt 0.634 0.332
vt 0.776 0.002
vt 0.776 0.332
vt 0.859 0.002
vt 0.859 0.332
vt 0.919 0.002
vt 0.919 0.332
vt 0.606 0.582
vt 0.546 0.643
vt 0.463 0.665
vt 0.381 0.643
vt 0.321 0.582
vt 0.299 0.500
vt 0.321 0.418
vt 0.381 0.357
vt 0.463 0.335
vt 0.546 0.357
vt 0.606 0.418
vt 0.628 0.500
vt 0.331 0.833
vt 0.309 0.916
vt 0.249 0.976
vt 0.167 0.998
vt 0.084 0.976
vt 0.024 0.916
vt 0.002 0.833
vt 0.024 0.751
vt 0.084 0.691
vt 0.167 0.668
vt 0.249 0.691
vt 0.309 0.751
# wrote 56 texture coordinates

g AnalyticalTrunk
s off
usemtl AnalyticalTrunk
f 109/169/110 110/170/111 122/171/111 121/172/110
f 110/177/111 111/178/112 123/179/112 122/180/111
f 111/178/112 112/181/113 124/182/113 123/179/112
f 112/183/113 113/184/114 125/185/114 124/186/113
f 113/184/114 114/187/115 126/188/115 125/185/114
f 114/187/115 115/189/116 127/190/116 126/188/115
f 115/191/116 116/192/117 128/193/117 127/194/116
f 116/192/117 117/195/118 129/196/118 128/193/117
f 117/195/118 118/197/119 130/198/119 129/196/118
f 118/197/119 119/199/120 131/200/120 130/198/119
f 119/175/120 120/173/121 132/174/121 131/176/120
f 120/173/121 109/169/110 121/172/110 132/174/121
f 119/201/122 118/202/122 117/203/122 116/204/122 115/205/122 114/206/122 113/207/122 112/208/122 111/209/122 110/210/122 109/211/122 120/212/122
f 132/213/123 121/214/123 122/215/123 123/216/123 124/217/123 125/218/123 126/219/123 127/220/123 128/221/123 129/222/123 130/223/123 131/224/123
# wrote 14 faces

