# created with CityEngine 2012.1.09130547
# creation date: Wed Nov 06 00:15:30 2013

mtllib Ficus_Fan.mtl

# mesh 'CreateFan'
v -1.235 0.000 0.000
v 0.000 0.000 0.003
v -1.235 3.000 0.000
v 0.000 3.000 0.003
v 1.235 0.000 0.000
v 0.000 0.000 -0.003
v 1.235 3.000 0.000
v 0.000 3.000 -0.003
v 0.000 0.000 1.235
v 0.003 0.000 0.000
v 0.000 3.000 1.235
v 0.003 3.000 0.000
v 0.000 0.000 -1.235
v -0.003 0.000 0.000
v 0.000 3.000 -1.235
v -0.003 3.000 0.000
# wrote 16 vertices

vn -0.86 0.36 0.36
vn 0.86 0.36 -0.36
vn 0.86 0.36 0.36
vn -0.86 0.36 -0.36
vn 0.36 0.36 0.86
vn -0.36 0.36 -0.86
vn 0.36 0.36 -0.86
vn -0.36 0.36 0.86
# wrote 8 vertex normals

vt 0.122 0.047
vt 0.505 0.047
vt 0.505 0.980
vt 0.122 0.980
vt 0.888 0.047
vt 0.888 0.980
# wrote 6 texture coordinates

g CreateFan
s off
usemtl CreateFan
f 1/1/1 2/2/1 4/3/1 3/4/1
f 5/5/2 6/2/2 8/3/2 7/6/2
f 5/5/3 7/6/3 4/3/3 2/2/3
f 1/1/4 3/4/4 8/3/4 6/2/4
f 9/1/5 10/2/5 12/3/5 11/4/5
f 13/5/6 14/2/6 16/3/6 15/6/6
f 13/5/7 15/6/7 12/3/7 10/2/7
f 9/1/8 11/4/8 16/3/8 14/2/8
# wrote 8 faces

