# created with CityEngine 2012.1.09130547
# creation date: Wed Nov 06 00:13:51 2013

mtllib Balsam_Fir_Analytical.mtl

# mesh 'AnalyticalCrown'
v 1.675 4.000 2.901
v 2.901 4.000 1.675
v 3.350 4.000 0.000
v 2.901 4.000 -1.675
v 1.675 4.000 -2.901
v 0.000 4.000 -3.350
v -1.675 4.000 -2.901
v -2.901 4.000 -1.675
v -3.350 4.000 0.000
v -2.901 4.000 1.675
v -1.675 4.000 2.901
v 0.000 4.000 3.350
v 0.000 15.000 0.000
# wrote 13 vertices

vn 0.00 -1.00 0.00
vn 0.48 0.29 0.83
vn 0.83 0.29 0.48
vn 0.00 1.00 0.00
vn 0.96 0.29 0.00
vn 0.83 0.29 -0.48
vn 0.48 0.29 -0.83
vn 0.00 0.29 -0.96
vn -0.48 0.29 -0.83
vn -0.83 0.29 -0.48
vn -0.96 0.29 0.00
vn -0.83 0.29 0.48
vn -0.48 0.29 0.83
vn 0.00 0.29 0.96
# wrote 14 vertex normals

vt 0.423 0.115
vt 0.454 0.228
vt 0.423 0.341
vt 0.341 0.423
vt 0.228 0.454
vt 0.115 0.423
vt 0.032 0.341
vt 0.002 0.228
vt 0.032 0.115
vt 0.115 0.032
vt 0.228 0.002
vt 0.341 0.032
vt 0.686 0.002
vt 0.769 0.002
vt 0.573 0.454
vt 0.573 0.002
vt 0.460 0.002
vt 0.998 0.909
vt 0.885 0.909
vt 0.885 0.458
vt 0.772 0.909
vt 0.457 0.458
vt 0.540 0.458
vt 0.653 0.909
vt 0.653 0.458
vt 0.766 0.458
vt 0.060 0.458
vt 0.143 0.458
vt 0.256 0.909
vt 0.256 0.458
vt 0.369 0.458
vt 0.451 0.458
# wrote 32 texture coordinates

g AnalyticalCrown
s off
usemtl AnalyticalCrown
f 1/1/1 12/2/1 11/3/1 10/4/1 9/5/1 8/6/1 7/7/1 6/8/1 5/9/1 4/10/1 3/11/1 2/12/1
f 1/13/2 2/14/3 13/15/4
f 2/18/3 3/19/5 13/20/4
f 3/19/5 4/21/6 13/20/4
f 4/22/6 5/23/7 13/24/4
f 5/23/7 6/25/8 13/24/4
f 6/25/8 7/26/9 13/24/4
f 7/27/9 8/28/10 13/29/4
f 8/28/10 9/30/11 13/29/4
f 9/30/11 10/31/12 13/29/4
f 10/31/12 11/32/13 13/29/4
f 11/17/13 12/16/14 13/15/4
f 12/16/14 1/13/2 13/15/4
# wrote 13 faces

# mesh 'AnalyticalTrunk'
v 0.175 0.000 0.303
v 0.303 0.000 0.175
v 0.350 0.000 0.000
v 0.303 0.000 -0.175
v 0.175 0.000 -0.303
v 0.000 0.000 -0.350
v -0.175 0.000 -0.303
v -0.303 0.000 -0.175
v -0.350 0.000 0.000
v -0.303 0.000 0.175
v -0.175 0.000 0.303
v 0.000 0.000 0.350
v 0.175 6.750 0.303
v 0.303 6.750 0.175
v 0.350 6.750 0.000
v 0.303 6.750 -0.175
v 0.175 6.750 -0.303
v 0.000 6.750 -0.350
v -0.175 6.750 -0.303
v -0.303 6.750 -0.175
v -0.350 6.750 0.000
v -0.303 6.750 0.175
v -0.175 6.750 0.303
v 0.000 6.750 0.350
# wrote 24 vertices

vn 0.50 0.00 0.87
vn 0.87 0.00 0.50
vn 1.00 0.00 0.00
vn 0.87 0.00 -0.50
vn 0.50 0.00 -0.87
vn 0.00 0.00 -1.00
vn -0.50 0.00 -0.87
vn -0.87 0.00 -0.50
vn -1.00 0.00 0.00
vn -0.87 0.00 0.50
vn -0.50 0.00 0.87
vn 0.00 0.00 1.00
vn 0.00 -1.00 0.00
vn 0.00 1.00 0.00
# wrote 14 vertex normals

vt 0.167 0.002
vt 0.227 0.002
vt 0.227 0.332
vt 0.167 0.332
vt 0.084 0.002
vt 0.084 0.332
vt 0.002 0.002
vt 0.002 0.332
vt 0.398 0.332
vt 0.316 0.332
vt 0.316 0.002
vt 0.398 0.002
vt 0.234 0.332
vt 0.234 0.002
vt 0.404 0.002
vt 0.464 0.002
vt 0.464 0.332
vt 0.404 0.332
vt 0.547 0.002
vt 0.547 0.332
vt 0.629 0.002
vt 0.629 0.332
vt 0.634 0.002
vt 0.694 0.002
vt 0.694 0.332
vt 0.634 0.332
vt 0.776 0.002
vt 0.776 0.332
vt 0.859 0.002
vt 0.859 0.332
vt 0.919 0.002
vt 0.919 0.332
vt 0.606 0.582
vt 0.546 0.643
vt 0.463 0.665
vt 0.381 0.643
vt 0.321 0.582
vt 0.299 0.500
vt 0.321 0.418
vt 0.381 0.357
vt 0.463 0.335
vt 0.546 0.357
vt 0.606 0.418
vt 0.628 0.500
vt 0.331 0.833
vt 0.309 0.916
vt 0.249 0.976
vt 0.167 0.998
vt 0.084 0.976
vt 0.024 0.916
vt 0.002 0.833
vt 0.024 0.751
vt 0.084 0.691
vt 0.167 0.668
vt 0.249 0.691
vt 0.309 0.751
# wrote 56 texture coordinates

g AnalyticalTrunk
s off
usemtl AnalyticalTrunk
f 14/33/15 15/34/16 27/35/16 26/36/15
f 15/41/16 16/42/17 28/43/17 27/44/16
f 16/42/17 17/45/18 29/46/18 28/43/17
f 17/47/18 18/48/19 30/49/19 29/50/18
f 18/48/19 19/51/20 31/52/20 30/49/19
f 19/51/20 20/53/21 32/54/21 31/52/20
f 20/55/21 21/56/22 33/57/22 32/58/21
f 21/56/22 22/59/23 34/60/23 33/57/22
f 22/59/23 23/61/24 35/62/24 34/60/23
f 23/61/24 24/63/25 36/64/25 35/62/24
f 24/39/25 25/37/26 37/38/26 36/40/25
f 25/37/26 14/33/15 26/36/15 37/38/26
f 24/65/27 23/66/27 22/67/27 21/68/27 20/69/27 19/70/27 18/71/27 17/72/27 16/73/27 15/74/27 14/75/27 25/76/27
f 37/77/28 26/78/28 27/79/28 28/80/28 29/81/28 30/82/28 31/83/28 32/84/28 33/85/28 34/86/28 35/87/28 36/88/28
# wrote 14 faces

