# created with CityEngine 2012.1.09130547
# creation date: Wed Nov 06 00:14:35 2013

mtllib California_Incense_Cedar_Fan.mtl

# mesh 'CreateFan'
v -6.213 0.000 0.000
v 0.000 0.000 0.006
v -6.213 25.000 0.000
v 0.000 25.000 0.006
v 6.213 0.000 0.000
v 0.000 0.000 -0.006
v 6.213 25.000 0.000
v 0.000 25.000 -0.006
v 0.000 0.000 6.213
v 0.006 0.000 0.000
v 0.000 25.000 6.213
v 0.006 25.000 0.000
v 0.000 0.000 -6.213
v -0.006 0.000 0.000
v 0.000 25.000 -6.213
v -0.006 25.000 0.000
# wrote 16 vertices

vn -0.67 0.33 0.66
vn 0.67 0.33 -0.66
vn 0.67 0.33 0.66
vn -0.67 0.33 -0.66
# wrote 4 vertex normals

vt 0.262 0.028
vt 0.525 0.028
vt 0.525 0.990
vt 0.262 0.990
vt 0.788 0.028
vt 0.788 0.990
# wrote 6 texture coordinates

g CreateFan
s off
usemtl CreateFan
f 1/1/1 2/2/1 4/3/1 3/4/1
f 5/5/2 6/2/2 8/3/2 7/6/2
f 5/5/3 7/6/3 4/3/3 2/2/3
f 1/1/4 3/4/4 8/3/4 6/2/4
f 9/1/3 10/2/3 12/3/3 11/4/3
f 13/5/4 14/2/4 16/3/4 15/6/4
f 13/5/2 15/6/2 12/3/2 10/2/2
f 9/1/1 11/4/1 16/3/1 14/2/1
# wrote 8 faces

