# created with CityEngine 2012.1.09130547
# creation date: Wed Nov 06 00:14:14 2013

mtllib Red_Alder_Analytical.mtl

# mesh 'AnalyticalCrown'
v 1.485 6.300 2.572
v 2.572 6.300 1.485
v 2.970 6.300 0.000
v 2.572 6.300 -1.485
v 1.485 6.300 -2.572
v 0.000 6.300 -2.970
v -1.485 6.300 -2.572
v -2.572 6.300 -1.485
v -2.970 6.300 0.000
v -2.572 6.300 1.485
v -1.485 6.300 2.572
v 0.000 6.300 2.970
v 1.483 8.271 2.568
v 2.568 8.271 1.483
v 2.966 8.271 0.000
v 2.568 8.271 -1.483
v 1.483 8.271 -2.568
v 0.000 8.271 -2.966
v -1.483 8.271 -2.568
v -2.568 8.271 -1.483
v -2.966 8.271 0.000
v -2.568 8.271 1.483
v -1.483 8.271 2.568
v 0.000 8.271 2.966
v 1.439 9.953 2.492
v 2.492 9.953 1.439
v 2.877 9.953 0.000
v 2.492 9.953 -1.439
v 1.439 9.953 -2.492
v 0.000 9.953 -2.877
v -1.439 9.953 -2.492
v -2.492 9.953 -1.439
v -2.877 9.953 0.000
v -2.492 9.953 1.439
v -1.439 9.953 2.492
v 0.000 9.953 2.877
v 1.301 11.837 2.253
v 2.253 11.837 1.301
v 2.601 11.837 0.000
v 2.253 11.837 -1.301
v 1.301 11.837 -2.253
v 0.000 11.837 -2.601
v -1.301 11.837 -2.253
v -2.253 11.837 -1.301
v -2.601 11.837 0.000
v -2.253 11.837 1.301
v -1.301 11.837 2.253
v 0.000 11.837 2.601
v 1.102 13.587 1.908
v 1.908 13.587 1.102
v 2.203 13.587 0.000
v 1.908 13.587 -1.102
v 1.102 13.587 -1.908
v 0.000 13.587 -2.203
v -1.102 13.587 -1.908
v -1.908 13.587 -1.102
v -2.203 13.587 0.000
v -1.908 13.587 1.102
v -1.102 13.587 1.908
v 0.000 13.587 2.203
v 0.845 15.137 1.464
v 1.464 15.137 0.845
v 1.690 15.137 0.000
v 1.464 15.137 -0.845
v 0.845 15.137 -1.464
v 0.000 15.137 -1.690
v -0.845 15.137 -1.464
v -1.464 15.137 -0.845
v -1.690 15.137 0.000
v -1.464 15.137 0.845
v -0.845 15.137 1.464
v 0.000 15.137 1.690
v 0.581 16.314 1.007
v 1.007 16.314 0.581
v 1.162 16.314 0.000
v 1.007 16.314 -0.581
v 0.581 16.314 -1.007
v 0.000 16.314 -1.162
v -0.581 16.314 -1.007
v -1.007 16.314 -0.581
v -1.162 16.314 0.000
v -1.007 16.314 0.581
v -0.581 16.314 1.007
v 0.000 16.314 1.162
v 0.256 17.178 0.443
v 0.443 17.178 0.256
v 0.511 17.178 0.000
v 0.443 17.178 -0.256
v 0.256 17.178 -0.443
v 0.000 17.178 -0.511
v -0.256 17.178 -0.443
v -0.443 17.178 -0.256
v -0.511 17.178 0.000
v -0.443 17.178 0.256
v -0.256 17.178 0.443
v 0.000 17.178 0.511
v 0.026 17.500 0.046
v 0.046 17.500 0.026
v 0.053 17.500 0.000
v 0.046 17.500 -0.026
v 0.026 17.500 -0.046
v 0.000 17.500 -0.053
v -0.026 17.500 -0.046
v -0.046 17.500 -0.026
v -0.053 17.500 0.000
v -0.046 17.500 0.026
v -0.026 17.500 0.046
v 0.000 17.500 0.053
# wrote 108 vertices

vn 0.50 0.00 0.87
vn 0.87 0.00 0.50
vn 0.87 0.03 0.50
vn 0.50 0.03 0.87
vn 1.00 0.00 0.00
vn 1.00 0.03 0.00
vn 0.87 0.00 -0.50
vn 0.87 0.03 -0.50
vn 0.50 0.00 -0.87
vn 0.50 0.03 -0.87
vn 0.00 0.00 -1.00
vn 0.00 0.03 -1.00
vn -0.50 0.00 -0.87
vn -0.50 0.03 -0.87
vn -0.87 0.00 -0.50
vn -0.87 0.03 -0.50
vn -1.00 0.00 0.00
vn -1.00 0.03 0.00
vn -0.87 0.00 0.50
vn -0.87 0.03 0.50
vn -0.50 0.00 0.87
vn -0.50 0.03 0.87
vn 0.00 0.00 1.00
vn 0.00 0.03 1.00
vn 0.86 0.10 0.50
vn 0.50 0.10 0.86
vn 1.00 0.10 0.00
vn 0.86 0.10 -0.50
vn 0.50 0.10 -0.86
vn 0.00 0.10 -1.00
vn -0.50 0.10 -0.86
vn -0.86 0.10 -0.50
vn -1.00 0.10 0.00
vn -0.86 0.10 0.50
vn -0.50 0.10 0.86
vn 0.00 0.10 1.00
vn 0.85 0.18 0.49
vn 0.49 0.18 0.85
vn 0.98 0.18 0.00
vn 0.85 0.18 -0.49
vn 0.49 0.18 -0.85
vn 0.00 0.18 -0.98
vn -0.49 0.18 -0.85
vn -0.85 0.18 -0.49
vn -0.98 0.18 0.00
vn -0.85 0.18 0.49
vn -0.49 0.18 0.85
vn 0.00 0.18 0.98
vn 0.83 0.27 0.48
vn 0.48 0.27 0.83
vn 0.96 0.27 0.00
vn 0.83 0.27 -0.48
vn 0.48 0.27 -0.83
vn 0.00 0.27 -0.96
vn -0.48 0.27 -0.83
vn -0.83 0.27 -0.48
vn -0.96 0.27 0.00
vn -0.83 0.27 0.48
vn -0.48 0.27 0.83
vn 0.00 0.27 0.96
vn 0.81 0.36 0.47
vn 0.47 0.36 0.81
vn 0.93 0.36 0.00
vn 0.81 0.36 -0.47
vn 0.47 0.36 -0.81
vn 0.00 0.36 -0.93
vn -0.47 0.36 -0.81
vn -0.81 0.36 -0.47
vn -0.93 0.36 0.00
vn -0.81 0.36 0.47
vn -0.47 0.36 0.81
vn 0.00 0.36 0.93
vn 0.75 0.50 0.43
vn 0.43 0.50 0.75
vn 0.86 0.50 0.00
vn 0.75 0.50 -0.43
vn 0.43 0.50 -0.75
vn 0.00 0.50 -0.86
vn -0.43 0.50 -0.75
vn -0.75 0.50 -0.43
vn -0.86 0.50 0.00
vn -0.75 0.50 0.43
vn -0.43 0.50 0.75
vn 0.00 0.50 0.86
vn 0.61 0.71 0.35
vn 0.35 0.71 0.61
vn 0.70 0.71 0.00
vn 0.61 0.71 -0.35
vn 0.35 0.71 -0.61
vn 0.00 0.71 -0.70
vn -0.35 0.71 -0.61
vn -0.61 0.71 -0.35
vn -0.70 0.71 0.00
vn -0.61 0.71 0.35
vn -0.35 0.71 0.61
vn 0.00 0.71 0.70
vn 0.36 0.91 0.21
vn 0.21 0.91 0.36
vn 0.42 0.91 0.00
vn 0.36 0.91 -0.21
vn 0.21 0.91 -0.36
vn 0.00 0.91 -0.42
vn -0.21 0.91 -0.36
vn -0.36 0.91 -0.21
vn -0.42 0.91 0.00
vn -0.36 0.91 0.21
vn -0.21 0.91 0.36
vn 0.00 0.91 0.42
vn 0.00 -1.00 0.00
# wrote 109 vertex normals

vt 0.606 0.002
vt 0.671 0.002
vt 0.671 0.064
vt 0.606 0.064
vt 0.517 0.002
vt 0.517 0.064
vt 0.603 0.118
vt 0.517 0.118
vt 0.429 0.002
vt 0.429 0.064
vt 0.595 0.177
vt 0.517 0.177
vt 0.431 0.118
vt 0.364 0.002
vt 0.364 0.064
vt 0.583 0.233
vt 0.517 0.233
vt 0.440 0.177
vt 0.652 0.177
vt 0.631 0.233
vt 0.568 0.282
vt 0.517 0.282
vt 0.451 0.233
vt 0.552 0.319
vt 0.517 0.319
vt 0.467 0.282
vt 0.483 0.319
vt 0.244 0.998
vt 0.155 0.998
vt 0.155 0.936
vt 0.244 0.936
vt 0.067 0.998
vt 0.067 0.936
vt 0.155 0.882
vt 0.241 0.882
vt 0.069 0.882
vt 0.155 0.823
vt 0.233 0.823
vt 0.308 0.936
vt 0.304 0.882
vt 0.002 0.936
vt 0.006 0.882
vt 0.078 0.823
vt 0.155 0.767
vt 0.221 0.767
vt 0.290 0.823
vt 0.021 0.823
vt 0.089 0.767
vt 0.155 0.718
vt 0.206 0.718
vt 0.105 0.718
vt 0.155 0.681
vt 0.190 0.681
vt 0.269 0.767
vt 0.243 0.718
vt 0.041 0.767
vt 0.068 0.718
vt 0.120 0.681
vt 0.619 0.323
vt 0.684 0.323
vt 0.684 0.385
vt 0.619 0.385
vt 0.773 0.323
vt 0.773 0.385
vt 0.861 0.323
vt 0.861 0.385
vt 0.773 0.438
vt 0.687 0.438
vt 0.926 0.323
vt 0.926 0.385
vt 0.858 0.438
vt 0.773 0.498
vt 0.695 0.498
vt 0.850 0.498
vt 0.773 0.553
vt 0.707 0.553
vt 0.838 0.553
vt 0.773 0.602
vt 0.722 0.602
vt 0.638 0.498
vt 0.659 0.553
vt 0.823 0.602
vt 0.773 0.640
vt 0.738 0.640
vt 0.807 0.640
vt 0.371 0.360
vt 0.460 0.360
vt 0.460 0.423
vt 0.371 0.423
vt 0.549 0.360
vt 0.548 0.423
vt 0.460 0.476
vt 0.374 0.476
vt 0.546 0.476
vt 0.460 0.536
vt 0.382 0.536
vt 0.307 0.423
vt 0.311 0.476
vt 0.613 0.423
vt 0.609 0.476
vt 0.538 0.536
vt 0.460 0.591
vt 0.394 0.591
vt 0.326 0.536
vt 0.594 0.536
vt 0.526 0.591
vt 0.460 0.640
vt 0.410 0.640
vt 0.346 0.591
vt 0.574 0.591
vt 0.510 0.640
vt 0.460 0.677
vt 0.425 0.677
vt 0.373 0.640
vt 0.547 0.640
vt 0.495 0.677
vt 0.490 0.819
vt 0.453 0.856
vt 0.437 0.828
vt 0.462 0.803
vt 0.418 0.795
vt 0.429 0.784
vt 0.402 0.838
vt 0.402 0.799
vt 0.404 0.771
vt 0.405 0.770
vt 0.472 0.768
vt 0.433 0.768
vt 0.368 0.828
vt 0.387 0.795
vt 0.402 0.772
vt 0.401 0.771
vt 0.400 0.770
vt 0.399 0.768
vt 0.400 0.767
vt 0.401 0.766
vt 0.402 0.765
vt 0.404 0.766
vt 0.405 0.767
vt 0.405 0.768
vt 0.462 0.734
vt 0.429 0.753
vt 0.342 0.803
vt 0.376 0.784
vt 0.372 0.768
vt 0.376 0.753
vt 0.387 0.742
vt 0.402 0.738
vt 0.418 0.742
vt 0.437 0.708
vt 0.352 0.856
vt 0.315 0.819
vt 0.333 0.768
vt 0.342 0.734
vt 0.368 0.708
vt 0.402 0.699
vt 0.453 0.681
vt 0.490 0.718
vt 0.315 0.718
vt 0.352 0.681
vt 0.333 0.091
vt 0.356 0.179
vt 0.333 0.268
vt 0.268 0.333
vt 0.179 0.357
vt 0.090 0.333
vt 0.026 0.268
vt 0.002 0.179
vt 0.026 0.091
vt 0.090 0.026
vt 0.179 0.002
vt 0.268 0.026
# wrote 172 texture coordinates

g AnalyticalCrown
s off
usemtl AnalyticalCrown
f 1/1/1 2/2/2 14/3/3 13/4/4
f 2/28/2 3/29/5 15/30/6 14/31/3
f 3/29/5 4/32/7 16/33/8 15/30/6
f 4/59/7 5/60/9 17/61/10 16/62/8
f 5/60/9 6/63/11 18/64/12 17/61/10
f 6/63/11 7/65/13 19/66/14 18/64/12
f 7/65/13 8/69/15 20/70/16 19/66/14
f 8/86/15 9/87/17 21/88/18 20/89/16
f 9/87/17 10/90/19 22/91/20 21/88/18
f 10/14/19 11/9/21 23/10/22 22/15/20
f 11/9/21 12/5/23 24/6/24 23/10/22
f 12/5/23 1/1/1 13/4/4 24/6/24
f 13/39/4 14/31/3 26/35/25 25/40/26
f 14/31/3 15/30/6 27/34/27 26/35/25
f 15/30/6 16/33/8 28/36/28 27/34/27
f 16/33/8 17/41/10 29/42/29 28/36/28
f 17/61/10 18/64/12 30/67/30 29/68/29
f 18/64/12 19/66/14 31/71/31 30/67/30
f 19/97/14 20/89/16 32/93/32 31/98/31
f 20/89/16 21/88/18 33/92/33 32/93/32
f 21/88/18 22/91/20 34/94/34 33/92/33
f 22/91/20 23/99/22 35/100/35 34/94/34
f 23/10/22 24/6/24 36/8/36 35/13/35
f 24/6/24 13/4/4 25/7/26 36/8/36
f 25/40/26 26/35/25 38/38/37 37/46/38
f 26/35/25 27/34/27 39/37/39 38/38/37
f 27/34/27 28/36/28 40/43/40 39/37/39
f 28/36/28 29/42/29 41/47/41 40/43/40
f 29/68/29 30/67/30 42/72/42 41/73/41
f 30/67/30 31/71/31 43/74/43 42/72/42
f 31/98/31 32/93/32 44/96/44 43/104/43
f 32/93/32 33/92/33 45/95/45 44/96/44
f 33/92/33 34/94/34 46/101/46 45/95/45
f 34/94/34 35/100/35 47/105/47 46/101/46
f 35/13/35 36/8/36 48/12/48 47/18/47
f 36/8/36 25/7/26 37/11/38 48/12/48
f 37/11/38 38/19/37 50/20/49 49/16/50
f 38/38/37 39/37/39 51/44/51 50/45/49
f 39/37/39 40/43/40 52/48/52 51/44/51
f 40/80/40 41/73/41 53/76/53 52/81/52
f 41/73/41 42/72/42 54/75/54 53/76/53
f 42/72/42 43/74/43 55/77/55 54/75/54
f 43/104/43 44/96/44 56/103/56 55/109/55
f 44/96/44 45/95/45 57/102/57 56/103/56
f 45/95/45 46/101/46 58/106/58 57/102/57
f 46/101/46 47/105/47 59/110/59 58/106/58
f 47/18/47 48/12/48 60/17/60 59/23/59
f 48/12/48 37/11/38 49/16/50 60/17/60
f 49/54/50 50/45/49 62/50/61 61/55/62
f 50/45/49 51/44/51 63/49/63 62/50/61
f 51/44/51 52/48/52 64/51/64 63/49/63
f 52/48/52 53/56/53 65/57/65 64/51/64
f 53/76/53 54/75/54 66/78/66 65/79/65
f 54/75/54 55/77/55 67/82/67 66/78/66
f 55/109/55 56/103/56 68/108/68 67/114/67
f 56/103/56 57/102/57 69/107/69 68/108/68
f 57/102/57 58/106/58 70/111/70 69/107/69
f 58/106/58 59/110/59 71/115/71 70/111/70
f 59/23/59 60/17/60 72/22/72 71/26/71
f 60/17/60 49/16/50 61/21/62 72/22/72
f 61/117/62 62/118/61 74/119/73 73/120/74
f 62/50/61 63/49/63 75/52/75 74/53/73
f 63/49/63 64/51/64 76/58/76 75/52/75
f 64/151/64 65/152/65 77/143/77 76/129/76
f 65/79/65 66/78/66 78/83/78 77/84/77
f 66/78/66 67/82/67 79/85/79 78/83/78
f 67/159/67 68/160/68 80/155/80 79/154/79
f 68/108/68 69/107/69 81/112/81 80/113/80
f 69/107/69 70/111/70 82/116/82 81/112/81
f 70/157/70 71/158/71 83/141/83 82/150/82
f 71/26/71 72/22/72 84/25/84 83/27/83
f 72/22/72 61/21/62 73/24/74 84/25/84
f 73/120/74 74/119/73 86/121/85 85/122/86
f 74/119/73 75/123/75 87/124/87 86/121/85
f 75/123/75 76/129/76 88/130/88 87/124/87
f 76/129/76 77/143/77 89/144/89 88/130/88
f 77/143/77 78/153/78 90/145/90 89/144/89
f 78/153/78 79/154/79 91/146/91 90/145/90
f 79/154/79 80/155/80 92/147/92 91/146/91
f 80/155/80 81/156/81 93/148/93 92/147/92
f 81/156/81 82/150/82 94/149/94 93/148/93
f 82/150/82 83/141/83 95/142/95 94/149/94
f 83/141/83 84/127/84 96/128/96 95/142/95
f 84/127/84 73/120/74 85/122/86 96/128/96
f 85/122/86 86/121/85 98/125/97 97/126/98
f 86/121/85 87/124/87 99/131/99 98/125/97
f 87/124/87 88/130/88 100/132/100 99/131/99
f 88/130/88 89/144/89 101/133/101 100/132/100
f 89/144/89 90/145/90 102/134/102 101/133/101
f 90/145/90 91/146/91 103/135/103 102/134/102
f 91/146/91 92/147/92 104/136/104 103/135/103
f 92/147/92 93/148/93 105/137/105 104/136/104
f 93/148/93 94/149/94 106/138/106 105/137/105
f 94/149/94 95/142/95 107/139/107 106/138/106
f 95/142/95 96/128/96 108/140/108 107/139/107
f 96/128/96 85/122/86 97/126/98 108/140/108
f 1/161/109 12/162/109 11/163/109 10/164/109 9/165/109 8/166/109 7/167/109 6/168/109 5/169/109 4/170/109 3/171/109 2/172/109
f 97/126/98 98/125/97 99/131/99 100/132/100 101/133/101 102/134/102 103/135/103 104/136/104 105/137/105 106/138/106 107/139/107 108/140/108
# wrote 98 faces

# mesh 'AnalyticalTrunk'
v 0.170 0.000 0.294
v 0.294 0.000 0.170
v 0.340 0.000 0.000
v 0.294 0.000 -0.170
v 0.170 0.000 -0.294
v 0.000 0.000 -0.340
v -0.170 0.000 -0.294
v -0.294 0.000 -0.170
v -0.340 0.000 0.000
v -0.294 0.000 0.170
v -0.170 0.000 0.294
v 0.000 0.000 0.340
v 0.170 9.100 0.294
v 0.294 9.100 0.170
v 0.340 9.100 0.000
v 0.294 9.100 -0.170
v 0.170 9.100 -0.294
v 0.000 9.100 -0.340
v -0.170 9.100 -0.294
v -0.294 9.100 -0.170
v -0.340 9.100 0.000
v -0.294 9.100 0.170
v -0.170 9.100 0.294
v 0.000 9.100 0.340
# wrote 24 vertices

vn 0.50 0.00 0.87
vn 0.87 0.00 0.50
vn 1.00 0.00 0.00
vn 0.87 0.00 -0.50
vn 0.50 0.00 -0.87
vn 0.00 0.00 -1.00
vn -0.50 0.00 -0.87
vn -0.87 0.00 -0.50
vn -1.00 0.00 0.00
vn -0.87 0.00 0.50
vn -0.50 0.00 0.87
vn 0.00 0.00 1.00
vn 0.00 -1.00 0.00
vn 0.00 1.00 0.00
# wrote 14 vertex normals

vt 0.167 0.002
vt 0.227 0.002
vt 0.227 0.332
vt 0.167 0.332
vt 0.084 0.002
vt 0.084 0.332
vt 0.002 0.002
vt 0.002 0.332
vt 0.398 0.332
vt 0.316 0.332
vt 0.316 0.002
vt 0.398 0.002
vt 0.234 0.332
vt 0.234 0.002
vt 0.404 0.002
vt 0.464 0.002
vt 0.464 0.332
vt 0.404 0.332
vt 0.547 0.002
vt 0.547 0.332
vt 0.629 0.002
vt 0.629 0.332
vt 0.634 0.002
vt 0.694 0.002
vt 0.694 0.332
vt 0.634 0.332
vt 0.776 0.002
vt 0.776 0.332
vt 0.859 0.002
vt 0.859 0.332
vt 0.919 0.002
vt 0.919 0.332
vt 0.606 0.582
vt 0.546 0.643
vt 0.463 0.665
vt 0.381 0.643
vt 0.321 0.582
vt 0.299 0.500
vt 0.321 0.418
vt 0.381 0.357
vt 0.463 0.335
vt 0.546 0.357
vt 0.606 0.418
vt 0.628 0.500
vt 0.331 0.833
vt 0.309 0.916
vt 0.249 0.976
vt 0.167 0.998
vt 0.084 0.976
vt 0.024 0.916
vt 0.002 0.833
vt 0.024 0.751
vt 0.084 0.691
vt 0.167 0.668
vt 0.249 0.691
vt 0.309 0.751
# wrote 56 texture coordinates

g AnalyticalTrunk
s off
usemtl AnalyticalTrunk
f 109/173/110 110/174/111 122/175/111 121/176/110
f 110/181/111 111/182/112 123/183/112 122/184/111
f 111/182/112 112/185/113 124/186/113 123/183/112
f 112/187/113 113/188/114 125/189/114 124/190/113
f 113/188/114 114/191/115 126/192/115 125/189/114
f 114/191/115 115/193/116 127/194/116 126/192/115
f 115/195/116 116/196/117 128/197/117 127/198/116
f 116/196/117 117/199/118 129/200/118 128/197/117
f 117/199/118 118/201/119 130/202/119 129/200/118
f 118/201/119 119/203/120 131/204/120 130/202/119
f 119/179/120 120/177/121 132/178/121 131/180/120
f 120/177/121 109/173/110 121/176/110 132/178/121
f 119/205/122 118/206/122 117/207/122 116/208/122 115/209/122 114/210/122 113/211/122 112/212/122 111/213/122 110/214/122 109/215/122 120/216/122
f 132/217/123 121/218/123 122/219/123 123/220/123 124/221/123 125/222/123 126/223/123 127/224/123 128/225/123 129/226/123 130/227/123 131/228/123
# wrote 14 faces

