# created with CityEngine 2012.1.09130547
# creation date: Wed Nov 06 00:15:04 2013

mtllib Lily_of_the_Valley_Analytical.mtl

# mesh 'AnalyticalCrown'
v 0.000 0.000 0.001
v 0.001 0.000 0.000
v 0.001 0.000 0.000
v 0.000 0.000 -0.001
v 0.000 0.000 -0.001
v -0.001 0.000 0.000
v 0.000 0.000 0.001
v 0.015 0.006 0.025
v 0.025 0.006 0.015
v 0.029 0.006 0.000
v 0.025 0.006 -0.015
v 0.015 0.006 -0.025
v 0.000 0.006 -0.029
v -0.015 0.006 -0.025
v -0.025 0.006 -0.015
v -0.029 0.006 0.000
v -0.025 0.006 0.015
v -0.015 0.006 0.025
v 0.000 0.006 0.029
v 0.025 0.023 0.044
v 0.044 0.023 0.025
v 0.051 0.023 0.000
v 0.044 0.023 -0.025
v 0.025 0.023 -0.044
v 0.000 0.023 -0.051
v -0.025 0.023 -0.044
v -0.044 0.023 -0.025
v -0.051 0.023 0.000
v -0.044 0.023 0.025
v -0.025 0.023 0.044
v 0.000 0.023 0.051
v 0.032 0.044 0.055
v 0.055 0.044 0.032
v 0.064 0.044 0.000
v 0.055 0.044 -0.032
v 0.032 0.044 -0.055
v 0.000 0.044 -0.064
v -0.032 0.044 -0.055
v -0.055 0.044 -0.032
v -0.064 0.044 0.000
v -0.055 0.044 0.032
v -0.032 0.044 0.055
v 0.000 0.044 0.064
v 0.035 0.072 0.061
v 0.061 0.072 0.035
v 0.070 0.072 0.000
v 0.061 0.072 -0.035
v 0.035 0.072 -0.061
v 0.000 0.072 -0.070
v -0.035 0.072 -0.061
v -0.061 0.072 -0.035
v -0.070 0.072 0.000
v -0.061 0.072 0.035
v -0.035 0.072 0.061
v 0.000 0.072 0.070
v 0.035 0.117 0.061
v 0.061 0.117 0.035
v 0.070 0.117 0.000
v 0.061 0.117 -0.035
v 0.035 0.117 -0.061
v 0.000 0.117 -0.070
v -0.035 0.117 -0.061
v -0.061 0.117 -0.035
v -0.070 0.117 0.000
v -0.061 0.117 0.035
v -0.035 0.117 0.061
v 0.000 0.117 0.070
v 0.033 0.149 0.057
v 0.057 0.149 0.033
v 0.066 0.149 0.000
v 0.057 0.149 -0.033
v 0.033 0.149 -0.057
v 0.000 0.149 -0.066
v -0.033 0.149 -0.057
v -0.057 0.149 -0.033
v -0.066 0.149 0.000
v -0.057 0.149 0.033
v -0.033 0.149 0.057
v 0.000 0.149 0.066
v 0.030 0.174 0.052
v 0.052 0.174 0.030
v 0.060 0.174 0.000
v 0.052 0.174 -0.030
v 0.030 0.174 -0.052
v 0.000 0.174 -0.060
v -0.030 0.174 -0.052
v -0.052 0.174 -0.030
v -0.060 0.174 0.000
v -0.052 0.174 0.030
v -0.030 0.174 0.052
v 0.000 0.174 0.060
v 0.026 0.195 0.046
v 0.046 0.195 0.026
v 0.053 0.195 0.000
v 0.046 0.195 -0.026
v 0.026 0.195 -0.046
v 0.000 0.195 -0.053
v -0.026 0.195 -0.046
v -0.046 0.195 -0.026
v -0.053 0.195 0.000
v -0.046 0.195 0.026
v -0.026 0.195 0.046
v 0.000 0.195 0.053
v 0.022 0.214 0.038
v 0.038 0.214 0.022
v 0.043 0.214 0.000
v 0.038 0.214 -0.022
v 0.022 0.214 -0.038
v 0.000 0.214 -0.043
v -0.022 0.214 -0.038
v -0.038 0.214 -0.022
v -0.043 0.214 0.000
v -0.038 0.214 0.022
v -0.022 0.214 0.038
v 0.000 0.214 0.043
v 0.015 0.235 0.026
v 0.026 0.235 0.015
v 0.030 0.235 0.000
v 0.026 0.235 -0.015
v 0.015 0.235 -0.026
v 0.000 0.235 -0.030
v -0.015 0.235 -0.026
v -0.026 0.235 -0.015
v -0.030 0.235 0.000
v -0.026 0.235 0.015
v -0.015 0.235 0.026
v 0.000 0.235 0.030
v 0.010 0.244 0.017
v 0.017 0.244 0.010
v 0.020 0.244 0.000
v 0.017 0.244 -0.010
v 0.010 0.244 -0.017
v 0.000 0.244 -0.020
v -0.010 0.244 -0.017
v -0.017 0.244 -0.010
v -0.020 0.244 0.000
v -0.017 0.244 0.010
v -0.010 0.244 0.017
v 0.000 0.244 0.020
v 0.000 0.250 0.001
v 0.001 0.250 0.000
v 0.000 0.250 -0.001
v 0.000 0.250 -0.001
v -0.001 0.250 0.000
v 0.000 0.250 0.001
v 0.000 0.250 0.001
# wrote 146 vertices

vn 0.07 -0.99 0.12
vn 0.12 -0.99 0.07
vn 0.37 -0.90 0.21
vn 0.21 -0.90 0.37
vn 0.14 -0.99 0.00
vn 0.43 -0.90 0.00
vn 0.12 -0.99 -0.07
vn 0.37 -0.90 -0.21
vn 0.07 -0.99 -0.12
vn 0.21 -0.90 -0.37
vn 0.00 -0.99 -0.14
vn 0.00 -0.90 -0.43
vn -0.07 -0.99 -0.12
vn -0.21 -0.90 -0.37
vn -0.12 -0.99 -0.07
vn -0.37 -0.90 -0.21
vn -0.14 -0.99 0.00
vn -0.43 -0.90 0.00
vn -0.12 -0.99 0.07
vn -0.37 -0.90 0.21
vn -0.07 -0.99 0.12
vn -0.21 -0.90 0.37
vn 0.00 -0.99 0.14
vn 0.00 -0.90 0.43
vn 0.65 -0.66 0.37
vn 0.37 -0.66 0.65
vn 0.75 -0.66 0.00
vn 0.65 -0.66 -0.37
vn 0.37 -0.66 -0.65
vn 0.00 -0.66 -0.75
vn -0.37 -0.66 -0.65
vn -0.65 -0.66 -0.37
vn -0.75 -0.66 0.00
vn -0.65 -0.66 0.37
vn -0.37 -0.66 0.65
vn 0.00 -0.66 0.75
vn 0.81 -0.36 0.47
vn 0.47 -0.36 0.81
vn 0.93 -0.36 0.00
vn 0.81 -0.36 -0.47
vn 0.47 -0.36 -0.81
vn 0.00 -0.36 -0.93
vn -0.47 -0.36 -0.81
vn -0.81 -0.36 -0.47
vn -0.93 -0.36 0.00
vn -0.81 -0.36 0.47
vn -0.47 -0.36 0.81
vn 0.00 -0.36 0.93
vn 0.86 -0.10 0.50
vn 0.50 -0.10 0.86
vn 0.99 -0.10 0.00
vn 0.86 -0.10 -0.50
vn 0.50 -0.10 -0.86
vn 0.00 -0.10 -0.99
vn -0.50 -0.10 -0.86
vn -0.86 -0.10 -0.50
vn -0.99 -0.10 0.00
vn -0.86 -0.10 0.50
vn -0.50 -0.10 0.86
vn 0.00 -0.10 0.99
vn 0.86 0.06 0.50
vn 0.50 0.06 0.86
vn 1.00 0.06 0.00
vn 0.86 0.06 -0.50
vn 0.50 0.06 -0.86
vn 0.00 0.06 -1.00
vn -0.50 0.06 -0.86
vn -0.86 0.06 -0.50
vn -1.00 0.06 0.00
vn -0.86 0.06 0.50
vn -0.50 0.06 0.86
vn 0.00 0.06 1.00
vn 0.85 0.18 0.49
vn 0.49 0.18 0.85
vn 0.98 0.18 0.00
vn 0.85 0.18 -0.49
vn 0.49 0.18 -0.85
vn 0.00 0.18 -0.98
vn -0.49 0.18 -0.85
vn -0.85 0.18 -0.49
vn -0.98 0.18 0.00
vn -0.85 0.18 0.49
vn -0.49 0.18 0.85
vn 0.00 0.18 0.98
vn 0.83 0.28 0.48
vn 0.48 0.28 0.83
vn 0.96 0.28 0.00
vn 0.83 0.28 -0.48
vn 0.48 0.28 -0.83
vn 0.00 0.28 -0.96
vn -0.48 0.28 -0.83
vn -0.83 0.28 -0.48
vn -0.96 0.28 0.00
vn -0.83 0.28 0.48
vn -0.48 0.28 0.83
vn 0.00 0.28 0.96
vn 0.80 0.38 0.46
vn 0.46 0.38 0.80
vn 0.92 0.38 0.00
vn 0.80 0.38 -0.46
vn 0.46 0.38 -0.80
vn 0.00 0.38 -0.92
vn -0.46 0.38 -0.80
vn -0.80 0.38 -0.46
vn -0.92 0.38 0.00
vn -0.80 0.38 0.46
vn -0.46 0.38 0.80
vn 0.00 0.38 0.92
vn 0.75 0.50 0.43
vn 0.43 0.50 0.75
vn 0.87 0.50 0.00
vn 0.75 0.50 -0.43
vn 0.43 0.50 -0.75
vn 0.00 0.50 -0.87
vn -0.43 0.50 -0.75
vn -0.75 0.50 -0.43
vn -0.87 0.50 0.00
vn -0.75 0.50 0.43
vn -0.43 0.50 0.75
vn 0.00 0.50 0.87
vn 0.66 0.65 0.38
vn 0.38 0.65 0.66
vn 0.76 0.65 0.00
vn 0.66 0.65 -0.38
vn 0.38 0.65 -0.66
vn 0.00 0.65 -0.76
vn -0.38 0.65 -0.66
vn -0.66 0.65 -0.38
vn -0.76 0.65 0.00
vn -0.66 0.65 0.38
vn -0.38 0.65 0.66
vn 0.00 0.65 0.76
vn 0.45 0.86 0.26
vn 0.26 0.86 0.45
vn 0.52 0.86 0.00
vn 0.45 0.86 -0.26
vn 0.26 0.86 -0.45
vn 0.00 0.86 -0.52
vn -0.26 0.86 -0.45
vn -0.45 0.86 -0.26
vn -0.52 0.86 0.00
vn -0.45 0.86 0.26
vn -0.26 0.86 0.45
vn 0.00 0.86 0.52
vn 0.18 0.98 0.11
vn 0.11 0.98 0.18
vn 0.21 0.98 0.00
vn 0.18 0.98 -0.11
vn 0.11 0.98 -0.18
vn 0.00 0.98 -0.21
vn -0.11 0.98 -0.18
vn -0.18 0.98 -0.11
vn -0.21 0.98 0.00
vn -0.18 0.98 0.11
vn -0.11 0.98 0.18
vn 0.00 0.98 0.21
# wrote 156 vertex normals

vt 0.139 0.803
vt 0.137 0.801
vt 0.177 0.733
vt 0.207 0.764
vt 0.135 0.801
vt 0.135 0.722
vt 0.133 0.801
vt 0.094 0.733
vt 0.132 0.803
vt 0.064 0.764
vt 0.132 0.805
vt 0.053 0.805
vt 0.132 0.807
vt 0.064 0.846
vt 0.133 0.808
vt 0.094 0.876
vt 0.135 0.809
vt 0.135 0.887
vt 0.137 0.808
vt 0.177 0.876
vt 0.139 0.807
vt 0.207 0.846
vt 0.139 0.805
vt 0.218 0.805
vt 0.198 0.697
vt 0.243 0.742
vt 0.135 0.680
vt 0.073 0.697
vt 0.028 0.742
vt 0.011 0.805
vt 0.028 0.867
vt 0.073 0.913
vt 0.135 0.929
vt 0.198 0.913
vt 0.243 0.867
vt 0.260 0.805
vt 0.212 0.671
vt 0.269 0.728
vt 0.548 0.794
vt 0.486 0.794
vt 0.486 0.755
vt 0.563 0.755
vt 0.424 0.794
vt 0.409 0.755
vt 0.002 0.728
vt 0.058 0.671
vt 0.109 0.002
vt 0.171 0.002
vt 0.171 0.041
vt 0.094 0.041
vt 0.234 0.002
vt 0.248 0.041
vt 0.058 0.938
vt 0.002 0.882
vt 0.452 0.002
vt 0.514 0.002
vt 0.514 0.041
vt 0.437 0.041
vt 0.576 0.002
vt 0.591 0.041
vt 0.269 0.882
vt 0.212 0.938
vt 0.766 0.400
vt 0.829 0.400
vt 0.829 0.440
vt 0.752 0.440
vt 0.891 0.400
vt 0.906 0.440
vt 0.620 0.755
vt 0.576 0.702
vt 0.641 0.702
vt 0.486 0.702
vt 0.397 0.702
vt 0.353 0.755
vt 0.331 0.702
vt 0.171 0.094
vt 0.082 0.094
vt 0.261 0.094
vt 0.381 0.041
vt 0.425 0.094
vt 0.359 0.094
vt 0.514 0.094
vt 0.604 0.094
vt 0.648 0.041
vt 0.669 0.094
vt 0.829 0.492
vt 0.739 0.492
vt 0.918 0.492
vt 0.984 0.492
vt 0.996 0.550
vt 0.925 0.550
vt 0.486 0.644
vt 0.583 0.644
vt 0.389 0.644
vt 0.016 0.094
vt 0.075 0.152
vt 0.004 0.152
vt 0.171 0.152
vt 0.268 0.152
vt 0.326 0.094
vt 0.339 0.152
vt 0.514 0.152
vt 0.417 0.152
vt 0.611 0.152
vt 0.674 0.492
vt 0.732 0.550
vt 0.661 0.550
vt 0.829 0.550
vt 0.998 0.597
vt 0.926 0.597
vt 0.486 0.597
vt 0.584 0.597
vt 0.388 0.597
vt 0.074 0.199
vt 0.002 0.199
vt 0.171 0.199
vt 0.269 0.199
vt 0.341 0.199
vt 0.514 0.199
vt 0.416 0.199
vt 0.612 0.199
vt 0.731 0.597
vt 0.659 0.597
vt 0.829 0.597
vt 0.996 0.644
vt 0.925 0.644
vt 0.486 0.550
vt 0.583 0.550
vt 0.390 0.550
vt 0.075 0.246
vt 0.004 0.246
vt 0.171 0.246
vt 0.268 0.246
vt 0.338 0.246
vt 0.514 0.246
vt 0.418 0.246
vt 0.611 0.246
vt 0.732 0.644
vt 0.662 0.644
vt 0.829 0.644
vt 0.653 0.550
vt 0.576 0.492
vt 0.641 0.492
vt 0.486 0.492
vt 0.397 0.492
vt 0.082 0.304
vt 0.017 0.304
vt 0.171 0.304
vt 0.261 0.304
vt 0.347 0.246
vt 0.425 0.304
vt 0.359 0.304
vt 0.514 0.304
vt 0.604 0.304
vt 0.681 0.246
vt 0.669 0.304
vt 0.829 0.702
vt 0.739 0.702
vt 0.918 0.702
vt 0.983 0.702
vt 0.962 0.755
vt 0.906 0.755
vt 0.486 0.440
vt 0.563 0.440
vt 0.409 0.440
vt 0.331 0.492
vt 0.353 0.440
vt 0.171 0.357
vt 0.094 0.357
vt 0.248 0.357
vt 0.326 0.304
vt 0.305 0.357
vt 0.514 0.357
vt 0.437 0.357
vt 0.591 0.357
vt 0.648 0.357
vt 0.829 0.755
vt 0.752 0.755
vt 0.325 0.611
vt 0.268 0.667
vt 0.253 0.641
vt 0.298 0.595
vt 0.486 0.400
vt 0.548 0.400
vt 0.424 0.400
vt 0.114 0.667
vt 0.058 0.611
vt 0.084 0.595
vt 0.130 0.641
vt 0.171 0.396
vt 0.110 0.396
vt 0.233 0.396
vt 0.058 0.457
vt 0.114 0.400
vt 0.130 0.427
vt 0.084 0.472
vt 0.514 0.396
vt 0.452 0.396
vt 0.576 0.396
vt 0.268 0.400
vt 0.325 0.457
vt 0.298 0.472
vt 0.253 0.427
vt 0.829 0.794
vt 0.767 0.794
vt 0.890 0.794
vt 0.232 0.604
vt 0.261 0.574
vt 0.191 0.657
vt 0.191 0.615
vt 0.151 0.604
vt 0.121 0.574
vt 0.068 0.534
vt 0.110 0.534
vt 0.121 0.493
vt 0.151 0.464
vt 0.191 0.410
vt 0.191 0.453
vt 0.232 0.464
vt 0.261 0.493
vt 0.315 0.534
vt 0.272 0.534
vt 0.193 0.537
vt 0.194 0.535
vt 0.191 0.537
vt 0.190 0.537
vt 0.188 0.535
vt 0.188 0.534
vt 0.188 0.532
vt 0.190 0.531
vt 0.191 0.530
vt 0.193 0.531
vt 0.194 0.532
vt 0.195 0.534
# wrote 234 texture coordinates

g AnalyticalCrown
s off
usemtl AnalyticalCrown
f 1/1/1 2/2/2 9/3/3 8/4/4
f 2/2/2 3/5/5 10/6/6 9/3/3
f 3/5/5 11/8/8 10/6/6
f 3/7/7 4/9/9 12/10/10 11/8/8
f 4/9/9 13/12/12 12/10/10
f 4/11/11 5/13/13 14/14/14 13/12/12
f 5/13/13 15/16/16 14/14/14
f 5/15/15 6/17/17 16/18/18 15/16/16
f 6/17/17 17/20/20 16/18/18
f 6/19/19 7/21/21 18/22/22 17/20/20
f 7/21/21 1/23/23 19/24/24 18/22/22
f 1/23/23 8/4/4 19/24/24
f 8/4/4 9/3/3 21/25/25 20/26/26
f 9/3/3 10/6/6 22/27/27 21/25/25
f 10/6/6 11/8/8 23/28/28 22/27/27
f 11/8/8 12/10/10 24/29/29 23/28/28
f 12/10/10 13/12/12 25/30/30 24/29/29
f 13/12/12 14/14/14 26/31/31 25/30/30
f 14/14/14 15/16/16 27/32/32 26/31/31
f 15/16/16 16/18/18 28/33/33 27/32/32
f 16/18/18 17/20/20 29/34/34 28/33/33
f 17/20/20 18/22/22 30/35/35 29/34/34
f 18/22/22 19/24/24 31/36/36 30/35/35
f 19/24/24 8/4/4 20/26/26 31/36/36
f 20/26/26 21/25/25 33/37/37 32/38/38
f 21/39/25 22/40/27 34/41/39 33/42/37
f 22/40/27 23/43/28 35/44/40 34/41/39
f 23/28/28 24/29/29 36/45/41 35/46/40
f 24/47/29 25/48/30 37/49/42 36/50/41
f 25/48/30 26/51/31 38/52/43 37/49/42
f 26/31/31 27/32/32 39/53/44 38/54/43
f 27/55/32 28/56/33 40/57/45 39/58/44
f 28/56/33 29/59/34 41/60/46 40/57/45
f 29/34/34 30/35/35 42/61/47 41/62/46
f 30/63/35 31/64/36 43/65/48 42/66/47
f 31/64/36 20/67/26 32/68/38 43/65/48
f 32/69/38 33/42/37 45/70/49 44/71/50
f 33/42/37 34/41/39 46/72/51 45/70/49
f 34/41/39 35/44/40 47/73/52 46/72/51
f 35/44/40 36/74/41 48/75/53 47/73/52
f 36/50/41 37/49/42 49/76/54 48/77/53
f 37/49/42 38/52/43 50/78/55 49/76/54
f 38/79/43 39/58/44 51/80/56 50/81/55
f 39/58/44 40/57/45 52/82/57 51/80/56
f 40/57/45 41/60/46 53/83/58 52/82/57
f 41/60/46 42/84/47 54/85/59 53/83/58
f 42/66/47 43/65/48 55/86/60 54/87/59
f 43/65/48 32/68/38 44/88/50 55/86/60
f 44/88/50 45/89/49 57/90/61 56/91/62
f 45/70/49 46/72/51 58/92/63 57/93/61
f 46/72/51 47/73/52 59/94/64 58/92/63
f 47/95/52 48/77/53 60/96/65 59/97/64
f 48/77/53 49/76/54 61/98/66 60/96/65
f 49/76/54 50/78/55 62/99/67 61/98/66
f 50/78/55 51/100/56 63/101/68 62/99/67
f 51/80/56 52/82/57 64/102/69 63/103/68
f 52/82/57 53/83/58 65/104/70 64/102/69
f 53/105/58 54/87/59 66/106/71 65/107/70
f 54/87/59 55/86/60 67/108/72 66/106/71
f 55/86/60 44/88/50 56/91/62 67/108/72
f 56/91/62 57/90/61 69/109/73 68/110/74
f 57/93/61 58/92/63 70/111/75 69/112/73
f 58/92/63 59/94/64 71/113/76 70/111/75
f 59/97/64 60/96/65 72/114/77 71/115/76
f 60/96/65 61/98/66 73/116/78 72/114/77
f 61/98/66 62/99/67 74/117/79 73/116/78
f 62/99/67 63/101/68 75/118/80 74/117/79
f 63/103/68 64/102/69 76/119/81 75/120/80
f 64/102/69 65/104/70 77/121/82 76/119/81
f 65/107/70 66/106/71 78/122/83 77/123/82
f 66/106/71 67/108/72 79/124/84 78/122/83
f 67/108/72 56/91/62 68/110/74 79/124/84
f 68/110/74 69/109/73 81/125/85 80/126/86
f 69/112/73 70/111/75 82/127/87 81/128/85
f 70/111/75 71/113/76 83/129/88 82/127/87
f 71/115/76 72/114/77 84/130/89 83/131/88
f 72/114/77 73/116/78 85/132/90 84/130/89
f 73/116/78 74/117/79 86/133/91 85/132/90
f 74/117/79 75/118/80 87/134/92 86/133/91
f 75/120/80 76/119/81 88/135/93 87/136/92
f 76/119/81 77/121/82 89/137/94 88/135/93
f 77/123/82 78/122/83 90/138/95 89/139/94
f 78/122/83 79/124/84 91/140/96 90/138/95
f 79/124/84 68/110/74 80/126/86 91/140/96
f 80/141/86 81/128/85 93/142/97 92/143/98
f 81/128/85 82/127/87 94/144/99 93/142/97
f 82/127/87 83/129/88 95/145/100 94/144/99
f 83/131/88 84/130/89 96/146/101 95/147/100
f 84/130/89 85/132/90 97/148/102 96/146/101
f 85/132/90 86/133/91 98/149/103 97/148/102
f 86/150/91 87/136/92 99/151/104 98/152/103
f 87/136/92 88/135/93 100/153/105 99/151/104
f 88/135/93 89/137/94 101/154/106 100/153/105
f 89/137/94 90/155/95 102/156/107 101/154/106
f 90/138/95 91/140/96 103/157/108 102/158/107
f 91/140/96 80/126/86 92/159/98 103/157/108
f 92/159/98 93/160/97 105/161/109 104/162/110
f 93/142/97 94/144/99 106/163/111 105/164/109
f 94/144/99 95/145/100 107/165/112 106/163/111
f 95/145/100 96/166/101 108/167/113 107/165/112
f 96/146/101 97/148/102 109/168/114 108/169/113
f 97/148/102 98/149/103 110/170/115 109/168/114
f 98/149/103 99/171/104 111/172/116 110/170/115
f 99/151/104 100/153/105 112/173/117 111/174/116
f 100/153/105 101/154/106 113/175/118 112/173/117
f 101/154/106 102/156/107 114/176/119 113/175/118
f 102/158/107 103/157/108 115/177/120 114/178/119
f 103/157/108 92/159/98 104/162/110 115/177/120
f 104/179/110 105/180/109 117/181/121 116/182/122
f 105/164/109 106/163/111 118/183/123 117/184/121
f 106/163/111 107/165/112 119/185/124 118/183/123
f 107/186/112 108/187/113 120/188/125 119/189/124
f 108/169/113 109/168/114 121/190/126 120/191/125
f 109/168/114 110/170/115 122/192/127 121/190/126
f 110/193/115 111/194/116 123/195/128 122/196/127
f 111/174/116 112/173/117 124/197/129 123/198/128
f 112/173/117 113/175/118 125/199/130 124/197/129
f 113/200/118 114/201/119 126/202/131 125/203/130
f 114/178/119 115/177/120 127/204/132 126/205/131
f 115/177/120 104/162/110 116/206/122 127/204/132
f 116/182/122 117/181/121 129/207/133 128/208/134
f 117/181/121 118/209/123 130/210/135 129/207/133
f 118/209/123 119/189/124 131/211/136 130/210/135
f 119/189/124 120/188/125 132/212/137 131/211/136
f 120/188/125 121/213/126 133/214/138 132/212/137
f 121/213/126 122/196/127 134/215/139 133/214/138
f 122/196/127 123/195/128 135/216/140 134/215/139
f 123/195/128 124/217/129 136/218/141 135/216/140
f 124/217/129 125/203/130 137/219/142 136/218/141
f 125/203/130 126/202/131 138/220/143 137/219/142
f 126/202/131 127/221/132 139/222/144 138/220/143
f 127/221/132 116/182/122 128/208/134 139/222/144
f 128/208/134 129/207/133 140/223/145
f 129/207/133 130/210/135 141/225/147 140/223/145
f 130/210/135 131/211/136 141/226/148
f 131/211/136 132/212/137 142/227/149 141/226/148
f 132/212/137 133/214/138 142/228/150
f 133/214/138 134/215/139 143/229/151 142/228/150
f 134/215/139 135/216/140 143/230/152
f 135/216/140 136/218/141 144/231/153 143/230/152
f 136/218/141 137/219/142 144/232/154
f 137/219/142 138/220/143 145/233/155 144/232/154
f 138/220/143 139/222/144 146/234/156 145/233/155
f 139/222/144 128/208/134 140/224/146 146/234/156
f 1/1/1 7/21/21 6/19/19 5/15/15 4/11/11 3/7/7 2/2/2
f 140/224/146 141/225/147 142/227/149 143/229/151 144/231/153 145/233/155 146/234/156
# wrote 146 faces

