# created with CityEngine 2012.1.09130547
# creation date: Wed Nov 06 00:16:41 2013

mtllib Cabbage_Palm_Fern_Fan.mtl

# mesh 'CreateFan'
v -1.045 0.000 0.000
v 0.000 0.000 0.004
v -1.045 1.000 0.000
v 0.000 1.000 0.004
v 1.045 0.000 0.000
v 0.000 0.000 -0.004
v 1.045 1.000 0.000
v 0.000 1.000 -0.004
v 0.000 0.000 1.045
v 0.004 0.000 0.000
v 0.000 1.000 1.045
v 0.004 1.000 0.000
v 0.000 0.000 -1.045
v -0.004 0.000 0.000
v 0.000 1.000 -1.045
v -0.004 1.000 0.000
# wrote 16 vertices

vn -0.86 0.45 0.23
vn 0.86 0.45 -0.23
vn 0.86 0.45 0.23
vn -0.86 0.45 -0.23
vn 0.23 0.45 0.86
vn -0.23 0.45 -0.86
vn 0.23 0.45 -0.86
vn -0.23 0.45 0.86
# wrote 8 vertex normals

vt 0.059 0.082
vt 0.530 0.082
vt 0.530 0.520
vt 0.059 0.520
vt 1.001 0.082
vt 1.001 0.520
# wrote 6 texture coordinates

g CreateFan
s off
usemtl CreateFan
f 1/1/1 2/2/1 4/3/1 3/4/1
f 5/5/2 6/2/2 8/3/2 7/6/2
f 5/5/3 7/6/3 4/3/3 2/2/3
f 1/1/4 3/4/4 8/3/4 6/2/4
f 9/1/5 10/2/5 12/3/5 11/4/5
f 13/5/6 14/2/6 16/3/6 15/6/6
f 13/5/7 15/6/7 12/3/7 10/2/7
f 9/1/8 11/4/8 16/3/8 14/2/8
# wrote 8 faces

