# created with CityEngine 2012.1.09130547
# creation date: Wed Nov 06 00:16:52 2013

mtllib Norway_Spruce_Fan.mtl

# mesh 'CreateFan'
v -5.225 0.000 0.000
v 0.000 0.000 0.004
v -5.225 16.000 0.000
v 0.000 16.000 0.004
v 5.225 0.000 0.000
v 0.000 0.000 -0.004
v 5.225 16.000 0.000
v 0.000 16.000 -0.004
v 0.000 0.000 5.225
v 0.004 0.000 0.000
v 0.000 16.000 5.225
v 0.004 16.000 0.000
v 0.000 0.000 -5.225
v -0.004 0.000 0.000
v 0.000 16.000 -5.225
v -0.004 16.000 0.000
# wrote 16 vertices

vn -0.56 0.37 0.74
vn 0.56 0.37 -0.74
vn 0.56 0.37 0.74
vn -0.56 0.37 -0.74
vn 0.74 0.37 0.56
vn -0.74 0.37 -0.56
vn 0.74 0.37 -0.56
vn -0.74 0.37 0.56
# wrote 8 vertex normals

vt 0.166 0.057
vt 0.525 0.057
vt 0.525 0.990
vt 0.166 0.990
vt 0.884 0.057
vt 0.884 0.990
# wrote 6 texture coordinates

g CreateFan
s off
usemtl CreateFan
f 1/1/1 2/2/1 4/3/1 3/4/1
f 5/5/2 6/2/2 8/3/2 7/6/2
f 5/5/3 7/6/3 4/3/3 2/2/3
f 1/1/4 3/4/4 8/3/4 6/2/4
f 9/1/5 10/2/5 12/3/5 11/4/5
f 13/5/6 14/2/6 16/3/6 15/6/6
f 13/5/7 15/6/7 12/3/7 10/2/7
f 9/1/8 11/4/8 16/3/8 14/2/8
# wrote 8 faces

