# created with CityEngine 2012.1.09130547
# creation date: Wed Nov 06 00:16:28 2013

mtllib Banana_Tree_Analytical.mtl

# mesh 'AnalyticalCrown'
v 0.015 2.480 0.026
v 0.026 2.480 0.015
v 0.030 2.480 0.000
v 0.026 2.480 -0.015
v 0.015 2.480 -0.026
v 0.000 2.480 -0.030
v -0.015 2.480 -0.026
v -0.026 2.480 -0.015
v -0.030 2.480 0.000
v -0.026 2.480 0.015
v -0.015 2.480 0.026
v 0.000 2.480 0.030
v 0.316 2.557 0.547
v 0.547 2.557 0.316
v 0.632 2.557 0.000
v 0.547 2.557 -0.316
v 0.316 2.557 -0.547
v 0.000 2.557 -0.632
v -0.316 2.557 -0.547
v -0.547 2.557 -0.316
v -0.632 2.557 0.000
v -0.547 2.557 0.316
v -0.316 2.557 0.547
v 0.000 2.557 0.632
v 0.478 2.685 0.827
v 0.827 2.685 0.478
v 0.955 2.685 0.000
v 0.827 2.685 -0.478
v 0.478 2.685 -0.827
v 0.000 2.685 -0.955
v -0.478 2.685 -0.827
v -0.827 2.685 -0.478
v -0.955 2.685 0.000
v -0.827 2.685 0.478
v -0.478 2.685 0.827
v 0.000 2.685 0.955
v 0.591 2.846 1.023
v 1.023 2.846 0.591
v 1.182 2.846 0.000
v 1.023 2.846 -0.591
v 0.591 2.846 -1.023
v 0.000 2.846 -1.182
v -0.591 2.846 -1.023
v -1.023 2.846 -0.591
v -1.182 2.846 0.000
v -1.023 2.846 0.591
v -0.591 2.846 1.023
v 0.000 2.846 1.182
v 0.687 3.061 1.190
v 1.190 3.061 0.687
v 1.374 3.061 0.000
v 1.190 3.061 -0.687
v 0.687 3.061 -1.190
v 0.000 3.061 -1.374
v -0.687 3.061 -1.190
v -1.190 3.061 -0.687
v -1.374 3.061 0.000
v -1.190 3.061 0.687
v -0.687 3.061 1.190
v 0.000 3.061 1.374
v 0.742 3.297 1.285
v 1.285 3.297 0.742
v 1.483 3.297 0.000
v 1.285 3.297 -0.742
v 0.742 3.297 -1.285
v 0.000 3.297 -1.483
v -0.742 3.297 -1.285
v -1.285 3.297 -0.742
v -1.483 3.297 0.000
v -1.285 3.297 0.742
v -0.742 3.297 1.285
v 0.000 3.297 1.483
v 0.750 3.490 1.299
v 1.299 3.490 0.750
v 1.500 3.490 0.000
v 1.299 3.490 -0.750
v 0.750 3.490 -1.299
v 0.000 3.490 -1.500
v -0.750 3.490 -1.299
v -1.299 3.490 -0.750
v -1.500 3.490 0.000
v -1.299 3.490 0.750
v -0.750 3.490 1.299
v 0.000 3.490 1.500
v 0.740 3.683 1.281
v 1.281 3.683 0.740
v 1.479 3.683 0.000
v 1.281 3.683 -0.740
v 0.740 3.683 -1.281
v 0.000 3.683 -1.479
v -0.740 3.683 -1.281
v -1.281 3.683 -0.740
v -1.479 3.683 0.000
v -1.281 3.683 0.740
v -0.740 3.683 1.281
v 0.000 3.683 1.479
v 0.685 3.919 1.187
v 1.187 3.919 0.685
v 1.371 3.919 0.000
v 1.187 3.919 -0.685
v 0.685 3.919 -1.187
v 0.000 3.919 -1.371
v -0.685 3.919 -1.187
v -1.187 3.919 -0.685
v -1.371 3.919 0.000
v -1.187 3.919 0.685
v -0.685 3.919 1.187
v 0.000 3.919 1.371
v 0.592 4.134 1.025
v 1.025 4.134 0.592
v 1.184 4.134 0.000
v 1.025 4.134 -0.592
v 0.592 4.134 -1.025
v 0.000 4.134 -1.184
v -0.592 4.134 -1.025
v -1.025 4.134 -0.592
v -1.184 4.134 0.000
v -1.025 4.134 0.592
v -0.592 4.134 1.025
v 0.000 4.134 1.184
v 0.473 4.295 0.820
v 0.820 4.295 0.473
v 0.946 4.295 0.000
v 0.820 4.295 -0.473
v 0.473 4.295 -0.820
v 0.000 4.295 -0.946
v -0.473 4.295 -0.820
v -0.820 4.295 -0.473
v -0.946 4.295 0.000
v -0.820 4.295 0.473
v -0.473 4.295 0.820
v 0.000 4.295 0.946
v 0.311 4.423 0.538
v 0.538 4.423 0.311
v 0.621 4.423 0.000
v 0.538 4.423 -0.311
v 0.311 4.423 -0.538
v 0.000 4.423 -0.621
v -0.311 4.423 -0.538
v -0.538 4.423 -0.311
v -0.621 4.423 0.000
v -0.538 4.423 0.311
v -0.311 4.423 0.538
v 0.000 4.423 0.621
v 0.013 4.500 0.023
v 0.023 4.500 0.014
v 0.027 4.500 0.000
v 0.023 4.500 -0.013
v 0.013 4.500 -0.023
v 0.000 4.500 -0.027
v -0.014 4.500 -0.023
v -0.023 4.500 -0.013
v -0.027 4.500 0.000
v -0.023 4.500 0.014
v -0.014 4.500 0.023
v 0.000 4.500 0.027
# wrote 156 vertices

vn 0.04 -1.00 0.07
vn 0.07 -1.00 0.04
vn 0.21 -0.97 0.12
vn 0.12 -0.97 0.21
vn 0.08 -1.00 0.00
vn 0.24 -0.97 0.00
vn 0.07 -1.00 -0.04
vn 0.21 -0.97 -0.12
vn 0.04 -1.00 -0.07
vn 0.12 -0.97 -0.21
vn 0.00 -1.00 -0.08
vn 0.00 -0.97 -0.24
vn -0.04 -1.00 -0.07
vn -0.12 -0.97 -0.21
vn -0.07 -1.00 -0.04
vn -0.21 -0.97 -0.12
vn -0.08 -1.00 0.00
vn -0.24 -0.97 0.00
vn -0.07 -1.00 0.04
vn -0.21 -0.97 0.12
vn -0.04 -1.00 0.07
vn -0.12 -0.97 0.21
vn 0.00 -1.00 0.08
vn 0.00 -0.97 0.24
vn 0.41 -0.88 0.23
vn 0.23 -0.88 0.41
vn 0.47 -0.88 0.00
vn 0.41 -0.88 -0.23
vn 0.23 -0.88 -0.41
vn 0.00 -0.88 -0.47
vn -0.23 -0.88 -0.41
vn -0.41 -0.88 -0.23
vn -0.47 -0.88 0.00
vn -0.41 -0.88 0.23
vn -0.23 -0.88 0.41
vn 0.00 -0.88 0.47
vn 0.57 -0.75 0.33
vn 0.33 -0.75 0.57
vn 0.66 -0.75 0.00
vn 0.57 -0.75 -0.33
vn 0.33 -0.75 -0.57
vn 0.00 -0.75 -0.66
vn -0.33 -0.75 -0.57
vn -0.57 -0.75 -0.33
vn -0.66 -0.75 0.00
vn -0.57 -0.75 0.33
vn -0.33 -0.75 0.57
vn 0.00 -0.75 0.66
vn 0.72 -0.56 0.41
vn 0.41 -0.56 0.72
vn 0.83 -0.56 0.00
vn 0.72 -0.56 -0.41
vn 0.41 -0.56 -0.72
vn 0.00 -0.56 -0.83
vn -0.41 -0.56 -0.72
vn -0.72 -0.56 -0.41
vn -0.83 -0.56 0.00
vn -0.72 -0.56 0.41
vn -0.41 -0.56 0.72
vn 0.00 -0.56 0.83
vn 0.84 -0.26 0.48
vn 0.48 -0.26 0.84
vn 0.96 -0.26 0.00
vn 0.84 -0.26 -0.48
vn 0.48 -0.26 -0.84
vn 0.00 -0.26 -0.96
vn -0.48 -0.26 -0.84
vn -0.84 -0.26 -0.48
vn -0.96 -0.26 0.00
vn -0.84 -0.26 0.48
vn -0.48 -0.26 0.84
vn 0.00 -0.26 0.96
vn 0.87 0.01 0.50
vn 0.50 0.01 0.87
vn 1.00 0.01 0.00
vn 0.87 0.01 -0.50
vn 0.50 0.01 -0.87
vn 0.00 0.01 -1.00
vn -0.50 0.01 -0.87
vn -0.87 0.01 -0.50
vn -1.00 0.01 0.00
vn -0.87 0.01 0.50
vn -0.50 0.01 0.87
vn 0.00 0.01 1.00
vn 0.83 0.27 0.48
vn 0.48 0.27 0.83
vn 0.96 0.27 0.00
vn 0.83 0.27 -0.48
vn 0.48 0.27 -0.83
vn 0.00 0.27 -0.96
vn -0.48 0.27 -0.83
vn -0.83 0.27 -0.48
vn -0.96 0.27 0.00
vn -0.83 0.27 0.48
vn -0.48 0.27 0.83
vn 0.00 0.27 0.96
vn 0.72 0.55 0.42
vn 0.42 0.55 0.72
vn 0.83 0.55 0.00
vn 0.72 0.55 -0.42
vn 0.42 0.55 -0.72
vn 0.00 0.55 -0.83
vn -0.42 0.55 -0.72
vn -0.72 0.55 -0.42
vn -0.83 0.55 0.00
vn -0.72 0.55 0.42
vn -0.42 0.55 0.72
vn 0.00 0.55 0.83
vn 0.57 0.75 0.33
vn 0.33 0.75 0.57
vn 0.66 0.75 0.00
vn 0.57 0.75 -0.33
vn 0.33 0.75 -0.57
vn 0.00 0.75 -0.66
vn -0.33 0.75 -0.57
vn -0.57 0.75 -0.33
vn -0.66 0.75 0.00
vn -0.57 0.75 0.33
vn -0.33 0.75 0.57
vn 0.00 0.75 0.66
vn 0.40 0.89 0.23
vn 0.23 0.89 0.40
vn 0.46 0.89 0.00
vn 0.40 0.89 -0.23
vn 0.23 0.89 -0.40
vn 0.00 0.89 -0.46
vn -0.23 0.89 -0.40
vn -0.40 0.89 -0.23
vn -0.46 0.89 0.00
vn -0.40 0.89 0.23
vn -0.23 0.89 0.40
vn 0.00 0.89 0.46
vn 0.21 0.97 0.12
vn 0.12 0.97 0.21
vn 0.24 0.97 0.00
vn 0.21 0.97 -0.12
vn 0.12 0.97 -0.21
vn 0.00 0.97 -0.24
vn -0.12 0.97 -0.21
vn -0.21 0.97 -0.12
vn -0.24 0.97 0.00
vn -0.21 0.97 0.12
vn -0.12 0.97 0.21
vn 0.00 0.97 0.24
vn 0.07 1.00 0.04
vn 0.04 1.00 0.07
vn 0.09 1.00 0.00
vn 0.07 1.00 -0.04
vn 0.04 1.00 -0.07
vn 0.00 1.00 -0.09
vn -0.04 1.00 -0.07
vn -0.07 1.00 -0.04
vn -0.09 1.00 0.00
vn -0.07 1.00 0.04
vn -0.04 1.00 0.07
vn 0.00 1.00 0.09
# wrote 156 vertex normals

vt 0.139 0.803
vt 0.137 0.801
vt 0.177 0.733
vt 0.207 0.764
vt 0.135 0.801
vt 0.135 0.722
vt 0.133 0.801
vt 0.094 0.733
vt 0.132 0.803
vt 0.064 0.764
vt 0.132 0.805
vt 0.053 0.805
vt 0.132 0.807
vt 0.064 0.846
vt 0.133 0.808
vt 0.094 0.876
vt 0.135 0.809
vt 0.135 0.887
vt 0.137 0.808
vt 0.177 0.876
vt 0.139 0.807
vt 0.207 0.846
vt 0.139 0.805
vt 0.218 0.805
vt 0.198 0.697
vt 0.243 0.742
vt 0.135 0.680
vt 0.073 0.697
vt 0.028 0.742
vt 0.011 0.805
vt 0.028 0.867
vt 0.073 0.913
vt 0.135 0.929
vt 0.198 0.913
vt 0.243 0.867
vt 0.260 0.805
vt 0.212 0.671
vt 0.269 0.728
vt 0.548 0.794
vt 0.486 0.794
vt 0.486 0.755
vt 0.563 0.755
vt 0.424 0.794
vt 0.409 0.755
vt 0.002 0.728
vt 0.058 0.671
vt 0.109 0.002
vt 0.171 0.002
vt 0.171 0.041
vt 0.094 0.041
vt 0.234 0.002
vt 0.248 0.041
vt 0.058 0.938
vt 0.002 0.882
vt 0.452 0.002
vt 0.514 0.002
vt 0.514 0.041
vt 0.437 0.041
vt 0.576 0.002
vt 0.591 0.041
vt 0.269 0.882
vt 0.212 0.938
vt 0.766 0.400
vt 0.829 0.400
vt 0.829 0.440
vt 0.752 0.440
vt 0.891 0.400
vt 0.906 0.440
vt 0.620 0.755
vt 0.576 0.702
vt 0.641 0.702
vt 0.486 0.702
vt 0.397 0.702
vt 0.353 0.755
vt 0.331 0.702
vt 0.171 0.094
vt 0.082 0.094
vt 0.261 0.094
vt 0.381 0.041
vt 0.425 0.094
vt 0.359 0.094
vt 0.514 0.094
vt 0.604 0.094
vt 0.648 0.041
vt 0.669 0.094
vt 0.829 0.492
vt 0.739 0.492
vt 0.918 0.492
vt 0.984 0.492
vt 0.996 0.550
vt 0.925 0.550
vt 0.486 0.644
vt 0.583 0.644
vt 0.389 0.644
vt 0.016 0.094
vt 0.075 0.152
vt 0.004 0.152
vt 0.171 0.152
vt 0.268 0.152
vt 0.326 0.094
vt 0.339 0.152
vt 0.514 0.152
vt 0.417 0.152
vt 0.611 0.152
vt 0.674 0.492
vt 0.732 0.550
vt 0.661 0.550
vt 0.829 0.550
vt 0.998 0.597
vt 0.926 0.597
vt 0.486 0.597
vt 0.584 0.597
vt 0.388 0.597
vt 0.074 0.199
vt 0.002 0.199
vt 0.171 0.199
vt 0.269 0.199
vt 0.341 0.199
vt 0.514 0.199
vt 0.416 0.199
vt 0.612 0.199
vt 0.731 0.597
vt 0.659 0.597
vt 0.829 0.597
vt 0.996 0.644
vt 0.925 0.644
vt 0.486 0.550
vt 0.583 0.550
vt 0.390 0.550
vt 0.075 0.246
vt 0.004 0.246
vt 0.171 0.246
vt 0.268 0.246
vt 0.338 0.246
vt 0.514 0.246
vt 0.418 0.246
vt 0.611 0.246
vt 0.732 0.644
vt 0.662 0.644
vt 0.829 0.644
vt 0.653 0.550
vt 0.576 0.492
vt 0.641 0.492
vt 0.486 0.492
vt 0.397 0.492
vt 0.082 0.304
vt 0.017 0.304
vt 0.171 0.304
vt 0.261 0.304
vt 0.347 0.246
vt 0.425 0.304
vt 0.359 0.304
vt 0.514 0.304
vt 0.604 0.304
vt 0.681 0.246
vt 0.669 0.304
vt 0.829 0.702
vt 0.739 0.702
vt 0.918 0.702
vt 0.983 0.702
vt 0.962 0.755
vt 0.906 0.755
vt 0.486 0.440
vt 0.563 0.440
vt 0.409 0.440
vt 0.331 0.492
vt 0.353 0.440
vt 0.171 0.357
vt 0.094 0.357
vt 0.248 0.357
vt 0.326 0.304
vt 0.305 0.357
vt 0.514 0.357
vt 0.437 0.357
vt 0.591 0.357
vt 0.648 0.357
vt 0.829 0.755
vt 0.752 0.755
vt 0.325 0.611
vt 0.268 0.667
vt 0.253 0.641
vt 0.298 0.595
vt 0.486 0.400
vt 0.548 0.400
vt 0.424 0.400
vt 0.114 0.667
vt 0.058 0.611
vt 0.084 0.595
vt 0.130 0.641
vt 0.171 0.396
vt 0.110 0.396
vt 0.233 0.396
vt 0.058 0.457
vt 0.114 0.400
vt 0.130 0.427
vt 0.084 0.472
vt 0.514 0.396
vt 0.452 0.396
vt 0.576 0.396
vt 0.268 0.400
vt 0.325 0.457
vt 0.298 0.472
vt 0.253 0.427
vt 0.829 0.794
vt 0.767 0.794
vt 0.890 0.794
vt 0.232 0.604
vt 0.261 0.574
vt 0.191 0.657
vt 0.191 0.615
vt 0.151 0.604
vt 0.121 0.574
vt 0.068 0.534
vt 0.110 0.534
vt 0.121 0.493
vt 0.151 0.464
vt 0.191 0.410
vt 0.191 0.453
vt 0.232 0.464
vt 0.261 0.493
vt 0.315 0.534
vt 0.272 0.534
vt 0.193 0.537
vt 0.194 0.535
vt 0.191 0.537
vt 0.190 0.537
vt 0.188 0.535
vt 0.188 0.534
vt 0.188 0.532
vt 0.190 0.531
vt 0.191 0.530
vt 0.193 0.531
vt 0.194 0.532
vt 0.195 0.534
# wrote 234 texture coordinates

g AnalyticalCrown
s off
usemtl AnalyticalCrown
f 1/1/1 2/2/2 14/3/3 13/4/4
f 2/2/2 3/5/5 15/6/6 14/3/3
f 3/5/5 4/7/7 16/8/8 15/6/6
f 4/7/7 5/9/9 17/10/10 16/8/8
f 5/9/9 6/11/11 18/12/12 17/10/10
f 6/11/11 7/13/13 19/14/14 18/12/12
f 7/13/13 8/15/15 20/16/16 19/14/14
f 8/15/15 9/17/17 21/18/18 20/16/16
f 9/17/17 10/19/19 22/20/20 21/18/18
f 10/19/19 11/21/21 23/22/22 22/20/20
f 11/21/21 12/23/23 24/24/24 23/22/22
f 12/23/23 1/1/1 13/4/4 24/24/24
f 13/4/4 14/3/3 26/25/25 25/26/26
f 14/3/3 15/6/6 27/27/27 26/25/25
f 15/6/6 16/8/8 28/28/28 27/27/27
f 16/8/8 17/10/10 29/29/29 28/28/28
f 17/10/10 18/12/12 30/30/30 29/29/29
f 18/12/12 19/14/14 31/31/31 30/30/30
f 19/14/14 20/16/16 32/32/32 31/31/31
f 20/16/16 21/18/18 33/33/33 32/32/32
f 21/18/18 22/20/20 34/34/34 33/33/33
f 22/20/20 23/22/22 35/35/35 34/34/34
f 23/22/22 24/24/24 36/36/36 35/35/35
f 24/24/24 13/4/4 25/26/26 36/36/36
f 25/26/26 26/25/25 38/37/37 37/38/38
f 26/39/25 27/40/27 39/41/39 38/42/37
f 27/40/27 28/43/28 40/44/40 39/41/39
f 28/28/28 29/29/29 41/45/41 40/46/40
f 29/47/29 30/48/30 42/49/42 41/50/41
f 30/48/30 31/51/31 43/52/43 42/49/42
f 31/31/31 32/32/32 44/53/44 43/54/43
f 32/55/32 33/56/33 45/57/45 44/58/44
f 33/56/33 34/59/34 46/60/46 45/57/45
f 34/34/34 35/35/35 47/61/47 46/62/46
f 35/63/35 36/64/36 48/65/48 47/66/47
f 36/64/36 25/67/26 37/68/38 48/65/48
f 37/69/38 38/42/37 50/70/49 49/71/50
f 38/42/37 39/41/39 51/72/51 50/70/49
f 39/41/39 40/44/40 52/73/52 51/72/51
f 40/44/40 41/74/41 53/75/53 52/73/52
f 41/50/41 42/49/42 54/76/54 53/77/53
f 42/49/42 43/52/43 55/78/55 54/76/54
f 43/79/43 44/58/44 56/80/56 55/81/55
f 44/58/44 45/57/45 57/82/57 56/80/56
f 45/57/45 46/60/46 58/83/58 57/82/57
f 46/60/46 47/84/47 59/85/59 58/83/58
f 47/66/47 48/65/48 60/86/60 59/87/59
f 48/65/48 37/68/38 49/88/50 60/86/60
f 49/88/50 50/89/49 62/90/61 61/91/62
f 50/70/49 51/72/51 63/92/63 62/93/61
f 51/72/51 52/73/52 64/94/64 63/92/63
f 52/95/52 53/77/53 65/96/65 64/97/64
f 53/77/53 54/76/54 66/98/66 65/96/65
f 54/76/54 55/78/55 67/99/67 66/98/66
f 55/78/55 56/100/56 68/101/68 67/99/67
f 56/80/56 57/82/57 69/102/69 68/103/68
f 57/82/57 58/83/58 70/104/70 69/102/69
f 58/105/58 59/87/59 71/106/71 70/107/70
f 59/87/59 60/86/60 72/108/72 71/106/71
f 60/86/60 49/88/50 61/91/62 72/108/72
f 61/91/62 62/90/61 74/109/73 73/110/74
f 62/93/61 63/92/63 75/111/75 74/112/73
f 63/92/63 64/94/64 76/113/76 75/111/75
f 64/97/64 65/96/65 77/114/77 76/115/76
f 65/96/65 66/98/66 78/116/78 77/114/77
f 66/98/66 67/99/67 79/117/79 78/116/78
f 67/99/67 68/101/68 80/118/80 79/117/79
f 68/103/68 69/102/69 81/119/81 80/120/80
f 69/102/69 70/104/70 82/121/82 81/119/81
f 70/107/70 71/106/71 83/122/83 82/123/82
f 71/106/71 72/108/72 84/124/84 83/122/83
f 72/108/72 61/91/62 73/110/74 84/124/84
f 73/110/74 74/109/73 86/125/85 85/126/86
f 74/112/73 75/111/75 87/127/87 86/128/85
f 75/111/75 76/113/76 88/129/88 87/127/87
f 76/115/76 77/114/77 89/130/89 88/131/88
f 77/114/77 78/116/78 90/132/90 89/130/89
f 78/116/78 79/117/79 91/133/91 90/132/90
f 79/117/79 80/118/80 92/134/92 91/133/91
f 80/120/80 81/119/81 93/135/93 92/136/92
f 81/119/81 82/121/82 94/137/94 93/135/93
f 82/123/82 83/122/83 95/138/95 94/139/94
f 83/122/83 84/124/84 96/140/96 95/138/95
f 84/124/84 73/110/74 85/126/86 96/140/96
f 85/141/86 86/128/85 98/142/97 97/143/98
f 86/128/85 87/127/87 99/144/99 98/142/97
f 87/127/87 88/129/88 100/145/100 99/144/99
f 88/131/88 89/130/89 101/146/101 100/147/100
f 89/130/89 90/132/90 102/148/102 101/146/101
f 90/132/90 91/133/91 103/149/103 102/148/102
f 91/150/91 92/136/92 104/151/104 103/152/103
f 92/136/92 93/135/93 105/153/105 104/151/104
f 93/135/93 94/137/94 106/154/106 105/153/105
f 94/137/94 95/155/95 107/156/107 106/154/106
f 95/138/95 96/140/96 108/157/108 107/158/107
f 96/140/96 85/126/86 97/159/98 108/157/108
f 97/159/98 98/160/97 110/161/109 109/162/110
f 98/142/97 99/144/99 111/163/111 110/164/109
f 99/144/99 100/145/100 112/165/112 111/163/111
f 100/145/100 101/166/101 113/167/113 112/165/112
f 101/146/101 102/148/102 114/168/114 113/169/113
f 102/148/102 103/149/103 115/170/115 114/168/114
f 103/149/103 104/171/104 116/172/116 115/170/115
f 104/151/104 105/153/105 117/173/117 116/174/116
f 105/153/105 106/154/106 118/175/118 117/173/117
f 106/154/106 107/156/107 119/176/119 118/175/118
f 107/158/107 108/157/108 120/177/120 119/178/119
f 108/157/108 97/159/98 109/162/110 120/177/120
f 109/179/110 110/180/109 122/181/121 121/182/122
f 110/164/109 111/163/111 123/183/123 122/184/121
f 111/163/111 112/165/112 124/185/124 123/183/123
f 112/186/112 113/187/113 125/188/125 124/189/124
f 113/169/113 114/168/114 126/190/126 125/191/125
f 114/168/114 115/170/115 127/192/127 126/190/126
f 115/193/115 116/194/116 128/195/128 127/196/127
f 116/174/116 117/173/117 129/197/129 128/198/128
f 117/173/117 118/175/118 130/199/130 129/197/129
f 118/200/118 119/201/119 131/202/131 130/203/130
f 119/178/119 120/177/120 132/204/132 131/205/131
f 120/177/120 109/162/110 121/206/122 132/204/132
f 121/182/122 122/181/121 134/207/133 133/208/134
f 122/181/121 123/209/123 135/210/135 134/207/133
f 123/209/123 124/189/124 136/211/136 135/210/135
f 124/189/124 125/188/125 137/212/137 136/211/136
f 125/188/125 126/213/126 138/214/138 137/212/137
f 126/213/126 127/196/127 139/215/139 138/214/138
f 127/196/127 128/195/128 140/216/140 139/215/139
f 128/195/128 129/217/129 141/218/141 140/216/140
f 129/217/129 130/203/130 142/219/142 141/218/141
f 130/203/130 131/202/131 143/220/143 142/219/142
f 131/202/131 132/221/132 144/222/144 143/220/143
f 132/221/132 121/182/122 133/208/134 144/222/144
f 133/208/134 134/207/133 146/223/145 145/224/146
f 134/207/133 135/210/135 147/225/147 146/223/145
f 135/210/135 136/211/136 148/226/148 147/225/147
f 136/211/136 137/212/137 149/227/149 148/226/148
f 137/212/137 138/214/138 150/228/150 149/227/149
f 138/214/138 139/215/139 151/229/151 150/228/150
f 139/215/139 140/216/140 152/230/152 151/229/151
f 140/216/140 141/218/141 153/231/153 152/230/152
f 141/218/141 142/219/142 154/232/154 153/231/153
f 142/219/142 143/220/143 155/233/155 154/232/154
f 143/220/143 144/222/144 156/234/156 155/233/155
f 144/222/144 133/208/134 145/224/146 156/234/156
f 1/1/1 12/23/23 11/21/21 10/19/19 9/17/17 8/15/15 7/13/13 6/11/11 5/9/9 4/7/7 3/5/5 2/2/2
f 145/224/146 146/223/145 147/225/147 148/226/148 149/227/149 150/228/150 151/229/151 152/230/152 153/231/153 154/232/154 155/233/155 156/234/156
# wrote 146 faces

# mesh 'AnalyticalTrunk'
v 0.045 0.000 0.078
v 0.078 0.000 0.045
v 0.090 0.000 0.000
v 0.078 0.000 -0.045
v 0.045 0.000 -0.078
v 0.000 0.000 -0.090
v -0.045 0.000 -0.078
v -0.078 0.000 -0.045
v -0.090 0.000 0.000
v -0.078 0.000 0.045
v -0.045 0.000 0.078
v 0.000 0.000 0.090
v 0.045 2.985 0.078
v 0.078 2.985 0.045
v 0.090 2.985 0.000
v 0.078 2.985 -0.045
v 0.045 2.985 -0.078
v 0.000 2.985 -0.090
v -0.045 2.985 -0.078
v -0.078 2.985 -0.045
v -0.090 2.985 0.000
v -0.078 2.985 0.045
v -0.045 2.985 0.078
v 0.000 2.985 0.090
# wrote 24 vertices

vn 0.50 0.00 0.87
vn 0.87 0.00 0.50
vn 1.00 0.00 0.00
vn 0.87 0.00 -0.50
vn 0.50 0.00 -0.87
vn 0.00 0.00 -1.00
vn -0.50 0.00 -0.87
vn -0.87 0.00 -0.50
vn -1.00 0.00 0.00
vn -0.87 0.00 0.50
vn -0.50 0.00 0.87
vn 0.00 0.00 1.00
vn 0.00 -1.00 0.00
vn 0.00 1.00 0.00
# wrote 14 vertex normals

vt 0.167 0.002
vt 0.227 0.002
vt 0.227 0.332
vt 0.167 0.332
vt 0.084 0.002
vt 0.084 0.332
vt 0.002 0.002
vt 0.002 0.332
vt 0.398 0.332
vt 0.316 0.332
vt 0.316 0.002
vt 0.398 0.002
vt 0.234 0.332
vt 0.234 0.002
vt 0.404 0.002
vt 0.464 0.002
vt 0.464 0.332
vt 0.404 0.332
vt 0.547 0.002
vt 0.547 0.332
vt 0.629 0.002
vt 0.629 0.332
vt 0.634 0.002
vt 0.694 0.002
vt 0.694 0.332
vt 0.634 0.332
vt 0.776 0.002
vt 0.776 0.332
vt 0.859 0.002
vt 0.859 0.332
vt 0.919 0.002
vt 0.919 0.332
vt 0.606 0.582
vt 0.546 0.643
vt 0.463 0.665
vt 0.381 0.643
vt 0.321 0.582
vt 0.299 0.500
vt 0.321 0.418
vt 0.381 0.357
vt 0.463 0.335
vt 0.546 0.357
vt 0.606 0.418
vt 0.628 0.500
vt 0.331 0.833
vt 0.309 0.916
vt 0.249 0.976
vt 0.167 0.998
vt 0.084 0.976
vt 0.024 0.916
vt 0.002 0.833
vt 0.024 0.751
vt 0.084 0.691
vt 0.167 0.668
vt 0.249 0.691
vt 0.309 0.751
# wrote 56 texture coordinates

g AnalyticalTrunk
s off
usemtl AnalyticalTrunk
f 157/235/157 158/236/158 170/237/158 169/238/157
f 158/243/158 159/244/159 171/245/159 170/246/158
f 159/244/159 160/247/160 172/248/160 171/245/159
f 160/249/160 161/250/161 173/251/161 172/252/160
f 161/250/161 162/253/162 174/254/162 173/251/161
f 162/253/162 163/255/163 175/256/163 174/254/162
f 163/257/163 164/258/164 176/259/164 175/260/163
f 164/258/164 165/261/165 177/262/165 176/259/164
f 165/261/165 166/263/166 178/264/166 177/262/165
f 166/263/166 167/265/167 179/266/167 178/264/166
f 167/241/167 168/239/168 180/240/168 179/242/167
f 168/239/168 157/235/157 169/238/157 180/240/168
f 167/267/169 166/268/169 165/269/169 164/270/169 163/271/169 162/272/169 161/273/169 160/274/169 159/275/169 158/276/169 157/277/169 168/278/169
f 180/279/170 169/280/170 170/281/170 171/282/170 172/283/170 173/284/170 174/285/170 175/286/170 176/287/170 177/288/170 178/289/170 179/290/170
# wrote 14 faces

