# created with CityEngine 2012.1.09130547
# creation date: Wed Nov 06 00:14:53 2013

mtllib Parlour_Palm_Fan.mtl

# mesh 'CreateFan'
v -1.324 0.000 0.000
v 0.000 0.000 0.008
v -1.324 2.000 0.000
v 0.000 2.000 0.008
v 1.324 0.000 0.000
v 0.000 0.000 -0.008
v 1.324 2.000 0.000
v 0.000 2.000 -0.008
v 0.000 0.000 1.324
v 0.008 0.000 0.000
v 0.000 2.000 1.324
v 0.008 2.000 0.000
v 0.000 0.000 -1.324
v -0.008 0.000 0.000
v 0.000 2.000 -1.324
v -0.008 2.000 0.000
# wrote 16 vertices

vn -0.94 0.31 0.16
vn 0.94 0.31 -0.16
vn 0.94 0.31 0.16
vn -0.94 0.31 -0.16
vn 0.16 0.31 0.94
vn -0.16 0.31 -0.94
vn 0.16 0.31 -0.94
vn -0.16 0.31 0.94
# wrote 8 vertex normals

vt 0.000 0.047
vt 0.520 0.047
vt 0.520 0.835
vt 0.000 0.835
vt 1.039 0.047
vt 1.039 0.835
# wrote 6 texture coordinates

g CreateFan
s off
usemtl CreateFan
f 1/1/1 2/2/1 4/3/1 3/4/1
f 5/5/2 6/2/2 8/3/2 7/6/2
f 5/5/3 7/6/3 4/3/3 2/2/3
f 1/1/4 3/4/4 8/3/4 6/2/4
f 9/1/5 10/2/5 12/3/5 11/4/5
f 13/5/6 14/2/6 16/3/6 15/6/6
f 13/5/7 15/6/7 12/3/7 10/2/7
f 9/1/8 11/4/8 16/3/8 14/2/8
# wrote 8 faces

