# created with CityEngine 2012.1.09130547
# creation date: Wed Nov 06 00:17:45 2013

mtllib Snake_Plant_Fan.mtl

# mesh 'CreateFan'
v -0.189 0.000 0.000
v 0.000 0.000 0.000
v -0.189 0.750 0.000
v 0.000 0.750 0.000
v 0.189 0.000 0.000
v 0.189 0.750 0.000
v 0.000 0.000 0.189
v 0.000 0.750 0.189
v 0.000 0.000 -0.189
v 0.000 0.750 -0.189
# wrote 10 vertices

vn 0.00 0.00 1.00
vn 0.00 0.00 -1.00
vn 1.00 0.00 0.00
vn -1.00 0.00 0.00
# wrote 4 vertex normals

vt 0.256 0.056
vt 0.510 0.056
vt 0.510 0.980
vt 0.256 0.980
vt 0.764 0.056
vt 0.764 0.980
# wrote 6 texture coordinates

g CreateFan
s off
usemtl CreateFan
f 1/1/1 2/2/1 4/3/1 3/4/1
f 5/5/2 2/2/2 4/3/2 6/6/2
f 5/5/1 6/6/1 4/3/1 2/2/1
f 1/1/2 3/4/2 4/3/2 2/2/2
f 7/1/3 2/2/3 4/3/3 8/4/3
f 9/5/4 2/2/4 4/3/4 10/6/4
f 9/5/3 10/6/3 4/3/3 2/2/3
f 7/1/4 8/4/4 4/3/4 2/2/4
# wrote 8 faces

