# created with CityEngine 2012.1.09130547
# creation date: Wed Nov 06 00:15:18 2013

mtllib Leyland_Cypress_Analytical.mtl

# mesh 'AnalyticalCrown'
v 0.002 0.150 0.003
v 0.003 0.150 0.002
v 0.004 0.150 0.000
v 0.003 0.150 -0.002
v 0.002 0.150 -0.003
v 0.000 0.150 -0.004
v -0.002 0.150 -0.003
v -0.003 0.150 -0.002
v -0.004 0.150 0.000
v -0.003 0.150 0.002
v -0.002 0.150 0.003
v 0.000 0.150 0.004
v 0.192 0.756 0.332
v 0.332 0.756 0.192
v 0.384 0.756 0.000
v 0.332 0.756 -0.192
v 0.192 0.756 -0.332
v 0.000 0.756 -0.384
v -0.192 0.756 -0.332
v -0.332 0.756 -0.192
v -0.384 0.756 0.000
v -0.332 0.756 0.192
v -0.192 0.756 0.332
v 0.000 0.756 0.384
v 0.282 1.362 0.488
v 0.488 1.362 0.282
v 0.563 1.362 0.000
v 0.488 1.362 -0.282
v 0.282 1.362 -0.488
v 0.000 1.362 -0.563
v -0.282 1.362 -0.488
v -0.488 1.362 -0.282
v -0.563 1.362 0.000
v -0.488 1.362 0.282
v -0.282 1.362 0.488
v 0.000 1.362 0.563
v 0.320 1.969 0.554
v 0.554 1.969 0.320
v 0.640 1.969 0.000
v 0.554 1.969 -0.320
v 0.320 1.969 -0.554
v 0.000 1.969 -0.640
v -0.320 1.969 -0.554
v -0.554 1.969 -0.320
v -0.640 1.969 0.000
v -0.554 1.969 0.320
v -0.320 1.969 0.554
v 0.000 1.969 0.640
v 0.320 3.181 0.554
v 0.554 3.181 0.320
v 0.640 3.181 0.000
v 0.554 3.181 -0.320
v 0.320 3.181 -0.554
v 0.000 3.181 -0.640
v -0.320 3.181 -0.554
v -0.554 3.181 -0.320
v -0.640 3.181 0.000
v -0.554 3.181 0.320
v -0.320 3.181 0.554
v 0.000 3.181 0.640
v 0.280 3.787 0.485
v 0.485 3.787 0.280
v 0.560 3.787 0.000
v 0.485 3.787 -0.280
v 0.280 3.787 -0.485
v 0.000 3.787 -0.560
v -0.280 3.787 -0.485
v -0.485 3.787 -0.280
v -0.560 3.787 0.000
v -0.485 3.787 0.280
v -0.280 3.787 0.485
v 0.000 3.787 0.560
v 0.191 4.394 0.330
v 0.330 4.394 0.191
v 0.381 4.394 0.000
v 0.330 4.394 -0.191
v 0.191 4.394 -0.330
v 0.000 4.394 -0.381
v -0.191 4.394 -0.330
v -0.330 4.394 -0.191
v -0.381 4.394 0.000
v -0.330 4.394 0.191
v -0.191 4.394 0.330
v 0.000 4.394 0.381
v 0.002 5.000 0.003
v 0.003 5.000 0.002
v 0.003 5.000 0.000
v 0.003 5.000 -0.002
v 0.002 5.000 -0.003
v 0.000 5.000 -0.003
v -0.002 5.000 -0.003
v -0.003 5.000 -0.002
v -0.003 5.000 0.000
v -0.003 5.000 0.002
v -0.002 5.000 0.003
v 0.000 5.000 0.003
v 0.112 4.745 0.194
v 0.194 4.745 0.112
v 0.224 4.745 0.000
v 0.194 4.745 -0.112
v 0.112 4.745 -0.194
v 0.000 4.745 -0.224
v -0.112 4.745 -0.194
v -0.194 4.745 -0.112
v -0.224 4.745 0.000
v -0.194 4.745 0.112
v -0.112 4.745 0.194
v 0.000 4.745 0.224
v 0.118 0.414 0.204
v 0.204 0.414 0.118
v 0.236 0.414 0.000
v 0.204 0.414 -0.118
v 0.118 0.414 -0.204
v 0.000 0.414 -0.236
v -0.118 0.414 -0.204
v -0.204 0.414 -0.118
v -0.236 0.414 0.000
v -0.204 0.414 0.118
v -0.118 0.414 0.204
v 0.000 0.414 0.236
# wrote 120 vertices

vn 0.30 -0.80 0.52
vn 0.52 -0.80 0.30
vn 0.75 -0.51 0.43
vn 0.43 -0.51 0.75
vn 0.60 -0.80 0.00
vn 0.86 -0.51 0.00
vn 0.52 -0.80 -0.30
vn 0.75 -0.51 -0.43
vn 0.30 -0.80 -0.52
vn 0.43 -0.51 -0.75
vn 0.00 -0.80 -0.60
vn 0.00 -0.51 -0.86
vn -0.30 -0.80 -0.52
vn -0.43 -0.51 -0.75
vn -0.52 -0.80 -0.30
vn -0.75 -0.51 -0.43
vn -0.60 -0.80 0.00
vn -0.86 -0.51 0.00
vn -0.52 -0.80 0.30
vn -0.75 -0.51 0.43
vn -0.30 -0.80 0.52
vn -0.43 -0.51 0.75
vn 0.00 -0.80 0.60
vn 0.00 -0.51 0.86
vn 0.47 -0.34 0.82
vn 0.82 -0.34 0.47
vn 0.85 -0.20 0.49
vn 0.49 -0.20 0.85
vn 0.94 -0.34 0.00
vn 0.98 -0.20 0.00
vn 0.82 -0.34 -0.47
vn 0.85 -0.20 -0.49
vn 0.47 -0.34 -0.82
vn 0.49 -0.20 -0.85
vn 0.00 -0.34 -0.94
vn 0.00 -0.20 -0.98
vn -0.47 -0.34 -0.82
vn -0.49 -0.20 -0.85
vn -0.82 -0.34 -0.47
vn -0.85 -0.20 -0.49
vn -0.94 -0.34 0.00
vn -0.98 -0.20 0.00
vn -0.82 -0.34 0.47
vn -0.85 -0.20 0.49
vn -0.47 -0.34 0.82
vn -0.49 -0.20 0.85
vn 0.00 -0.34 0.94
vn 0.00 -0.20 0.98
vn 0.86 -0.06 0.50
vn 0.50 -0.06 0.86
vn 1.00 -0.06 0.00
vn 0.86 -0.06 -0.50
vn 0.50 -0.06 -0.86
vn 0.00 -0.06 -1.00
vn -0.50 -0.06 -0.86
vn -0.86 -0.06 -0.50
vn -1.00 -0.06 0.00
vn -0.86 -0.06 0.50
vn -0.50 -0.06 0.86
vn 0.00 -0.06 1.00
vn 0.86 0.06 0.50
vn 0.50 0.06 0.86
vn 1.00 0.06 0.00
vn 0.86 0.06 -0.50
vn 0.50 0.06 -0.86
vn 0.00 0.06 -1.00
vn -0.50 0.06 -0.86
vn -0.86 0.06 -0.50
vn -1.00 0.06 0.00
vn -0.86 0.06 0.50
vn -0.50 0.06 0.86
vn 0.00 0.06 1.00
vn 0.85 0.20 0.49
vn 0.49 0.20 0.85
vn 0.98 0.20 0.00
vn 0.85 0.20 -0.49
vn 0.49 0.20 -0.85
vn 0.00 0.20 -0.98
vn -0.49 0.20 -0.85
vn -0.85 0.20 -0.49
vn -0.98 0.20 0.00
vn -0.85 0.20 0.49
vn -0.49 0.20 0.85
vn 0.00 0.20 0.98
vn 0.81 0.34 0.47
vn 0.47 0.34 0.81
vn 0.94 0.34 0.00
vn 0.81 0.34 -0.47
vn 0.47 0.34 -0.81
vn 0.00 0.34 -0.94
vn -0.47 0.34 -0.81
vn -0.81 0.34 -0.47
vn -0.94 0.34 0.00
vn -0.81 0.34 0.47
vn -0.47 0.34 0.81
vn 0.00 0.34 0.94
vn 0.74 0.51 0.43
vn 0.43 0.51 0.74
vn 0.86 0.51 0.00
vn 0.74 0.51 -0.43
vn 0.43 0.51 -0.74
vn 0.00 0.51 -0.86
vn -0.43 0.51 -0.74
vn -0.74 0.51 -0.43
vn -0.86 0.51 0.00
vn -0.74 0.51 0.43
vn -0.43 0.51 0.74
vn 0.00 0.51 0.86
vn 0.30 0.80 0.52
vn 0.52 0.80 0.30
vn 0.60 0.80 0.00
vn 0.52 0.80 -0.30
vn 0.30 0.80 -0.52
vn 0.00 0.80 -0.60
vn -0.30 0.80 -0.52
vn -0.52 0.80 -0.30
vn -0.60 0.80 0.00
vn -0.52 0.80 0.30
vn -0.30 0.80 0.52
vn 0.00 0.80 0.60
# wrote 120 vertex normals

vt 0.213 0.211
vt 0.256 0.136
vt 0.288 0.168
vt 0.212 0.124
vt 0.284 0.088
vt 0.336 0.140
vt 0.300 0.212
vt 0.288 0.256
vt 0.256 0.288
vt 0.212 0.300
vt 0.168 0.288
vt 0.136 0.256
vt 0.124 0.212
vt 0.136 0.168
vt 0.168 0.136
vt 0.212 0.069
vt 0.317 0.030
vt 0.394 0.107
vt 0.355 0.212
vt 0.336 0.283
vt 0.284 0.336
vt 0.212 0.355
vt 0.140 0.336
vt 0.088 0.283
vt 0.069 0.212
vt 0.088 0.140
vt 0.140 0.088
vt 0.212 0.002
vt 0.422 0.212
vt 0.394 0.317
vt 0.317 0.394
vt 0.212 0.422
vt 0.107 0.394
vt 0.030 0.317
vt 0.002 0.212
vt 0.030 0.107
vt 0.107 0.030
vt 0.025 0.527
vt 0.025 0.451
vt 0.084 0.426
vt 0.084 0.513
vt 0.204 0.426
vt 0.204 0.513
vt 0.025 0.632
vt 0.084 0.632
vt 0.204 0.632
vt 0.025 0.737
vt 0.084 0.752
vt 0.263 0.528
vt 0.263 0.632
vt 0.204 0.752
vt 0.263 0.737
vt 0.998 0.525
vt 0.998 0.630
vt 0.938 0.630
vt 0.938 0.510
vt 0.998 0.735
vt 0.938 0.749
vt 0.819 0.630
vt 0.819 0.510
vt 0.819 0.749
vt 0.759 0.630
vt 0.759 0.525
vt 0.759 0.734
vt 0.819 0.423
vt 0.759 0.449
vt 0.819 0.837
vt 0.759 0.811
vt 0.514 0.812
vt 0.514 0.735
vt 0.574 0.749
vt 0.574 0.837
vt 0.514 0.630
vt 0.574 0.630
vt 0.693 0.749
vt 0.693 0.837
vt 0.514 0.525
vt 0.574 0.510
vt 0.693 0.630
vt 0.514 0.448
vt 0.574 0.423
vt 0.693 0.510
vt 0.753 0.630
vt 0.753 0.734
vt 0.753 0.525
vt 0.270 0.737
vt 0.270 0.632
vt 0.329 0.632
vt 0.329 0.752
vt 0.270 0.527
vt 0.329 0.513
vt 0.449 0.632
vt 0.449 0.752
vt 0.270 0.451
vt 0.329 0.426
vt 0.449 0.513
vt 0.508 0.632
vt 0.508 0.737
vt 0.449 0.839
vt 0.329 0.839
vt 0.449 0.426
vt 0.508 0.528
vt 0.508 0.813
vt 0.508 0.452
vt 0.818 0.315
vt 0.742 0.391
vt 0.709 0.333
vt 0.761 0.281
vt 0.638 0.419
vt 0.638 0.353
vt 0.680 0.283
vt 0.710 0.252
vt 0.846 0.210
vt 0.780 0.210
vt 0.533 0.391
vt 0.567 0.333
vt 0.638 0.294
vt 0.638 0.211
vt 0.721 0.210
vt 0.818 0.106
vt 0.761 0.139
vt 0.457 0.315
vt 0.515 0.281
vt 0.596 0.283
vt 0.710 0.169
vt 0.742 0.030
vt 0.709 0.087
vt 0.429 0.210
vt 0.496 0.210
vt 0.565 0.252
vt 0.554 0.210
vt 0.565 0.169
vt 0.596 0.138
vt 0.638 0.127
vt 0.680 0.138
vt 0.638 0.002
vt 0.638 0.068
vt 0.457 0.106
vt 0.515 0.139
vt 0.567 0.087
vt 0.533 0.030
# wrote 141 texture coordinates

g AnalyticalCrown
s off
usemtl AnalyticalCrown
f 1/1/1 2/1/2 110/2/3 109/3/4
f 2/1/2 3/1/5 111/4/6 110/2/3
f 3/1/5 4/1/7 112/15/8 111/4/6
f 4/1/7 5/1/9 113/14/10 112/15/8
f 5/1/9 6/1/11 114/13/12 113/14/10
f 6/1/11 7/1/13 115/12/14 114/13/12
f 7/1/13 8/1/15 116/11/16 115/12/14
f 8/1/15 9/1/17 117/10/18 116/11/16
f 9/1/17 10/1/19 118/9/20 117/10/18
f 10/1/19 11/1/21 119/8/22 118/9/20
f 11/1/21 12/1/23 120/7/24 119/8/22
f 12/1/23 1/1/1 109/3/4 120/7/24
f 13/6/25 14/5/26 26/17/27 25/18/28
f 14/5/26 15/16/29 27/28/30 26/17/27
f 15/16/29 16/27/31 28/37/32 27/28/30
f 16/27/31 17/26/33 29/36/34 28/37/32
f 17/26/33 18/25/35 30/35/36 29/36/34
f 18/25/35 19/24/37 31/34/38 30/35/36
f 19/24/37 20/23/39 32/33/40 31/34/38
f 20/23/39 21/22/41 33/32/42 32/33/40
f 21/22/41 22/21/43 34/31/44 33/32/42
f 22/21/43 23/20/45 35/30/46 34/31/44
f 23/20/45 24/19/47 36/29/48 35/30/46
f 24/19/47 13/6/25 25/18/28 36/29/48
f 25/38/28 26/39/27 38/40/49 37/41/50
f 26/53/27 27/54/30 39/55/51 38/56/49
f 27/54/30 28/57/32 40/58/52 39/55/51
f 28/69/32 29/70/34 41/71/53 40/72/52
f 29/70/34 30/73/36 42/74/54 41/71/53
f 30/73/36 31/77/38 43/78/55 42/74/54
f 31/77/38 32/80/40 44/81/56 43/78/55
f 32/86/40 33/87/42 45/88/57 44/89/56
f 33/87/42 34/90/44 46/91/58 45/88/57
f 34/90/44 35/94/46 47/95/59 46/91/58
f 35/47/46 36/44/48 48/45/60 47/48/59
f 36/44/48 25/38/28 37/41/50 48/45/60
f 38/40/49 50/42/61 49/43/62 37/41/50
f 39/55/51 51/59/63 50/60/61 38/56/49
f 40/58/52 52/61/64 51/59/63 39/55/51
f 41/71/53 53/75/65 52/76/64 40/72/52
f 42/74/54 54/79/66 53/75/65 41/71/53
f 43/78/55 55/82/67 54/79/66 42/74/54
f 44/89/56 56/93/68 55/99/67 43/100/55
f 45/88/57 57/92/69 56/93/68 44/89/56
f 46/91/58 58/96/70 57/92/69 45/88/57
f 47/95/59 59/101/71 58/96/70 46/91/58
f 48/45/60 60/46/72 59/51/71 47/48/59
f 37/41/50 49/43/62 60/46/72 48/45/60
f 49/65/62 50/60/61 62/63/73 61/66/74
f 50/60/61 51/59/63 63/62/75 62/63/73
f 51/59/63 52/61/64 64/64/76 63/62/75
f 52/61/64 53/67/65 65/68/77 64/64/76
f 53/75/65 54/79/66 66/83/78 65/84/77
f 54/79/66 55/82/67 67/85/79 66/83/78
f 55/99/67 56/93/68 68/98/80 67/103/79
f 56/93/68 57/92/69 69/97/81 68/98/80
f 57/92/69 58/96/70 70/102/82 69/97/81
f 58/96/70 59/101/71 71/104/83 70/102/82
f 59/51/71 60/46/72 72/50/84 71/52/83
f 60/46/72 49/43/62 61/49/74 72/50/84
f 61/105/74 62/106/73 74/107/85 73/108/86
f 62/106/73 63/109/75 75/110/87 74/107/85
f 63/109/75 64/115/76 76/116/88 75/110/87
f 64/115/76 65/122/77 77/123/89 76/116/88
f 65/122/77 66/128/78 78/129/90 77/123/89
f 66/128/78 67/138/79 79/139/91 78/129/90
f 67/138/79 68/141/80 80/140/92 79/139/91
f 68/141/80 69/136/81 81/137/93 80/140/92
f 69/136/81 70/126/82 82/127/94 81/137/93
f 70/126/82 71/120/83 83/121/95 82/127/94
f 71/120/83 72/113/84 84/114/96 83/121/95
f 72/113/84 61/105/74 73/108/86 84/114/96
f 73/108/86 74/107/85 98/111/97 97/112/98
f 74/107/85 75/110/87 99/117/99 98/111/97
f 75/110/87 76/116/88 100/124/100 99/117/99
f 76/116/88 77/123/89 101/130/101 100/124/100
f 77/123/89 78/129/90 102/131/102 101/130/101
f 78/129/90 79/139/91 103/132/103 102/131/102
f 79/139/91 80/140/92 104/133/104 103/132/103
f 80/140/92 81/137/93 105/134/105 104/133/104
f 81/137/93 82/127/94 106/135/106 105/134/105
f 82/127/94 83/121/95 107/125/107 106/135/106
f 83/121/95 84/114/96 108/119/108 107/125/107
f 84/114/96 73/108/86 97/112/98 108/119/108
f 1/1/1 12/1/23 11/1/21 10/1/19 9/1/17 8/1/15 7/1/13 6/1/11 5/1/9 4/1/7 3/1/5 2/1/2
f 85/118/109 86/118/110 87/118/111 88/118/112 89/118/113 90/118/114 91/118/115 92/118/116 93/118/117 94/118/118 95/118/119 96/118/120
f 97/112/98 98/111/97 86/118/110 85/118/109
f 98/111/97 99/117/99 87/118/111 86/118/110
f 99/117/99 100/124/100 88/118/112 87/118/111
f 100/124/100 101/130/101 89/118/113 88/118/112
f 101/130/101 102/131/102 90/118/114 89/118/113
f 102/131/102 103/132/103 91/118/115 90/118/114
f 103/132/103 104/133/104 92/118/116 91/118/115
f 104/133/104 105/134/105 93/118/117 92/118/116
f 105/134/105 106/135/106 94/118/118 93/118/117
f 106/135/106 107/125/107 95/118/119 94/118/118
f 107/125/107 108/119/108 96/118/120 95/118/119
f 108/119/108 97/112/98 85/118/109 96/118/120
f 109/3/4 110/2/3 14/5/26 13/6/25
f 110/2/3 111/4/6 15/16/29 14/5/26
f 111/4/6 112/15/8 16/27/31 15/16/29
f 112/15/8 113/14/10 17/26/33 16/27/31
f 113/14/10 114/13/12 18/25/35 17/26/33
f 114/13/12 115/12/14 19/24/37 18/25/35
f 115/12/14 116/11/16 20/23/39 19/24/37
f 116/11/16 117/10/18 21/22/41 20/23/39
f 117/10/18 118/9/20 22/21/43 21/22/41
f 118/9/20 119/8/22 23/20/45 22/21/43
f 119/8/22 120/7/24 24/19/47 23/20/45
f 120/7/24 109/3/4 13/6/25 24/19/47
# wrote 110 faces

# mesh 'AnalyticalTrunk'
v 0.045 0.000 0.078
v 0.078 0.000 0.045
v 0.090 0.000 0.000
v 0.078 0.000 -0.045
v 0.045 0.000 -0.078
v 0.000 0.000 -0.090
v -0.045 0.000 -0.078
v -0.078 0.000 -0.045
v -0.090 0.000 0.000
v -0.078 0.000 0.045
v -0.045 0.000 0.078
v 0.000 0.000 0.090
v 0.045 1.362 0.078
v 0.078 1.362 0.045
v 0.090 1.362 0.000
v 0.078 1.362 -0.045
v 0.045 1.362 -0.078
v 0.000 1.362 -0.090
v -0.045 1.362 -0.078
v -0.078 1.362 -0.045
v -0.090 1.362 0.000
v -0.078 1.362 0.045
v -0.045 1.362 0.078
v 0.000 1.362 0.090
# wrote 24 vertices

vn 0.50 0.00 0.87
vn 0.87 0.00 0.50
vn 1.00 0.00 0.00
vn 0.87 0.00 -0.50
vn 0.50 0.00 -0.87
vn 0.00 0.00 -1.00
vn -0.50 0.00 -0.87
vn -0.87 0.00 -0.50
vn -1.00 0.00 0.00
vn -0.87 0.00 0.50
vn -0.50 0.00 0.87
vn 0.00 0.00 1.00
vn 0.00 -1.00 0.00
vn 0.00 1.00 0.00
# wrote 14 vertex normals

vt 0.167 0.002
vt 0.227 0.002
vt 0.227 0.332
vt 0.167 0.332
vt 0.084 0.002
vt 0.084 0.332
vt 0.002 0.002
vt 0.002 0.332
vt 0.398 0.332
vt 0.316 0.332
vt 0.316 0.002
vt 0.398 0.002
vt 0.234 0.332
vt 0.234 0.002
vt 0.404 0.002
vt 0.464 0.002
vt 0.464 0.332
vt 0.404 0.332
vt 0.547 0.002
vt 0.547 0.332
vt 0.629 0.002
vt 0.629 0.332
vt 0.634 0.002
vt 0.694 0.002
vt 0.694 0.332
vt 0.634 0.332
vt 0.776 0.002
vt 0.776 0.332
vt 0.859 0.002
vt 0.859 0.332
vt 0.919 0.002
vt 0.919 0.332
vt 0.606 0.582
vt 0.546 0.643
vt 0.463 0.665
vt 0.381 0.643
vt 0.321 0.582
vt 0.299 0.500
vt 0.321 0.418
vt 0.381 0.357
vt 0.463 0.335
vt 0.546 0.357
vt 0.606 0.418
vt 0.628 0.500
vt 0.331 0.833
vt 0.309 0.916
vt 0.249 0.976
vt 0.167 0.998
vt 0.084 0.976
vt 0.024 0.916
vt 0.002 0.833
vt 0.024 0.751
vt 0.084 0.691
vt 0.167 0.668
vt 0.249 0.691
vt 0.309 0.751
# wrote 56 texture coordinates

g AnalyticalTrunk
s off
usemtl AnalyticalTrunk
f 121/142/121 122/143/122 134/144/122 133/145/121
f 122/150/122 123/151/123 135/152/123 134/153/122
f 123/151/123 124/154/124 136/155/124 135/152/123
f 124/156/124 125/157/125 137/158/125 136/159/124
f 125/157/125 126/160/126 138/161/126 137/158/125
f 126/160/126 127/162/127 139/163/127 138/161/126
f 127/164/127 128/165/128 140/166/128 139/167/127
f 128/165/128 129/168/129 141/169/129 140/166/128
f 129/168/129 130/170/130 142/171/130 141/169/129
f 130/170/130 131/172/131 143/173/131 142/171/130
f 131/148/131 132/146/132 144/147/132 143/149/131
f 132/146/132 121/142/121 133/145/121 144/147/132
f 131/174/133 130/175/133 129/176/133 128/177/133 127/178/133 126/179/133 125/180/133 124/181/133 123/182/133 122/183/133 121/184/133 132/185/133
f 144/186/134 133/187/134 134/188/134 135/189/134 136/190/134 137/191/134 138/192/134 139/193/134 140/194/134 141/195/134 142/196/134 143/197/134
# wrote 14 faces

