# This file uses centimeters as units for non-parametric coordinates.

mtllib sash_window.mtl
v -0.345719 0.491600 -0.002829
v 0.346921 0.491600 -0.002829
v 0.346921 0.514337 -0.002829
v -0.345719 0.514337 -0.002829
v 0.346921 0.514337 -0.026603
v -0.345719 0.514337 -0.026603
v -0.345719 0.491600 -0.026603
v 0.346921 0.491600 -0.026603
v -0.323073 1.011244 -0.018804
v 0.326478 1.011244 -0.018804
v 0.326478 0.514037 -0.018804
v -0.323073 0.514037 -0.018804
v -0.322301 0.500416 -0.040534
v 0.325440 0.500416 -0.040534
v 0.325440 0.071569 -0.040534
v -0.322301 0.071569 -0.040534
v -0.375615 0.000000 0.049464
v 0.375880 0.000000 0.049464
v 0.375880 0.036898 0.049464
v -0.375615 0.036898 0.049464
v 0.375880 0.036898 -0.049464
v -0.375615 0.036898 -0.049464
v 0.375880 0.000000 -0.049464
v -0.375615 0.000000 -0.049464
v -0.375880 0.035727 -0.049464
v 0.375579 0.035728 -0.049464
v 0.375579 0.035728 0.015382
v -0.375880 0.035727 0.015382
v -0.375878 1.064140 -0.049464
v -0.375878 1.064140 0.015382
v 0.375578 1.064140 -0.049464
v 0.375578 1.064140 0.015382
v 0.346986 0.061844 0.015382
v -0.345654 0.061845 0.015382
v -0.345654 1.033931 0.015382
v 0.346987 1.033931 0.015382
v 0.346986 0.061844 -0.026657
v -0.345654 0.061845 -0.026657
v -0.345654 1.033931 -0.026657
v 0.346987 1.033931 -0.026657
v -0.345719 1.012058 -0.002829
v 0.346921 1.012058 -0.002829
v 0.346921 1.034795 -0.002829
v -0.345719 1.034795 -0.002829
v -0.345719 1.012058 -0.026603
v 0.346921 1.012058 -0.026603
v 0.324011 1.012050 -0.004530
v 0.324011 0.514391 -0.004530
v 0.346747 0.514391 -0.004530
v 0.346747 1.012050 -0.004530
v 0.324011 1.012050 -0.028304
v 0.324011 0.514391 -0.028304
v -0.322905 0.514391 -0.004530
v -0.322905 1.012050 -0.004530
v -0.345641 1.012050 -0.004530
v -0.345641 0.514391 -0.004530
v -0.322905 0.514391 -0.028304
v -0.322905 1.012050 -0.028304
v -0.345719 0.061828 -0.023989
v 0.346921 0.061828 -0.023989
v 0.346921 0.071211 -0.023989
v -0.345719 0.071211 -0.023989
v 0.346921 0.071211 -0.047763
v -0.345719 0.071211 -0.047763
v -0.345719 0.061828 -0.047763
v 0.346921 0.061828 -0.047763
v 0.324011 0.568924 -0.025690
v 0.324011 0.071265 -0.025690
v 0.346747 0.071265 -0.025690
v 0.346747 0.568924 -0.025690
v 0.324011 0.568924 -0.049464
v 0.324011 0.071265 -0.049464
v -0.322905 0.071266 -0.025690
v -0.322905 0.568924 -0.025690
v -0.345641 0.568924 -0.025690
v -0.345641 0.071266 -0.025690
v -0.322905 0.071266 -0.049464
v -0.322905 0.568924 -0.049464
vt 0.040118 0.487849
vt 0.961478 0.487849
vt 0.961478 0.500489
vt 0.040118 0.500489
vt 0.040118 0.500489
vt 0.961478 0.500489
vt 0.961478 0.487849
vt 0.040118 0.487849
vt 0.107035 0.887786
vt 0.107035 0.503728
vt 0.930408 0.503728
vt 0.930408 0.887786
vt 0.107035 0.462961
vt 0.107035 0.044586
vt 0.930408 0.044586
vt 0.930408 0.462961
vt 0.028285 0.476388
vt 0.098686 0.476388
vt 0.098686 0.513297
vt 0.028285 0.513297
vt 0.732627 0.919584
vt 0.267725 0.919584
vt 0.732627 0.917482
vt 0.267725 0.917482
vt 0.193382 0.924811
vt 0.806217 0.924811
vt 0.806217 0.924811
vt 0.193382 0.924811
vt 0.000000 0.479753
vt 1.000000 0.479753
vt 1.000000 0.508252
vt 0.000000 0.508252
vt 0.049317 0.000350
vt 0.049317 1.000000
vt 0.097300 1.000000
vt 0.097301 0.000350
vt 0.040204 0.478168
vt 0.961565 0.478168
vt 0.961565 0.500517
vt 0.040204 0.500517
vt 0.961566 0.478168
vt 0.040204 0.478168
vt 1.000000 0.496531
vt -0.000000 0.496531
vt 0.040204 0.500517
vt 0.961566 0.500517
vt 0.957138 1.000000
vt 0.957138 0.471017
vt 0.989270 0.471017
vt 0.989270 1.000000
vt -0.026426 0.484593
vt 1.026424 0.484593
vt 0.042863 0.471017
vt 0.042863 1.000000
vt 0.010730 1.000000
vt 0.010730 0.471017
vt 1.026424 0.501032
vt -0.026426 0.501032
vt 0.347260 0.926124
vt 0.661884 0.926124
vt 0.661884 0.929334
vt 0.347260 0.929334
vt 0.040118 0.500489
vt 0.961478 0.500489
vt 0.347260 0.926124
vt 0.661884 0.926124
vt 0.957138 0.528983
vt 0.957138 -0.000000
vt 0.989270 -0.000000
vt 0.989270 0.528983
vt 1.026425 0.484593
vt -0.026426 0.484593
vt 0.042863 0.000001
vt 0.042863 0.528983
vt 0.010730 0.528983
vt 0.010730 0.000001
vt -0.026426 0.501032
vt 1.026425 0.501032
vt 0.116242 0.471475
vt 0.883758 0.471475
vt 0.883758 0.488104
vt 0.116242 0.488104
vt 0.000000 0.027546
vt 0.999600 0.027547
vt 0.961565 0.043792
vt 0.040207 0.043792
vt 0.040220 0.484556
vt 0.961952 0.484556
vt 0.040134 0.475885
vt 0.961865 0.475885
vt 0.961865 0.484899
vt 0.040134 0.484899
vt 0.000000 0.007113
vt 1.000000 0.007110
vt 0.974604 0.046762
vt 0.029374 0.046761
vt 0.999999 0.992890
vt -0.000000 0.992888
vt 0.029374 0.955382
vt 0.974604 0.955381
vt -0.002727 0.501676
vt 0.536280 0.501676
vt 0.536280 0.492379
vt -0.002727 0.492379
vt 0.536280 0.501676
vt -0.002727 0.501676
vt -0.002727 0.492379
vt 0.536280 0.492379
vt 0.477216 0.509951
vt 1.016222 0.509951
vt 1.016222 0.500654
vt 0.477216 0.500654
vt 1.016221 0.509951
vt 0.477216 0.509951
vt 0.477216 0.500654
vt 1.016221 0.500654
vt 0.988159 1.000000
vt 0.988159 0.000000
vt 0.961612 0.000000
vt 0.961612 1.000000
vt 0.988159 0.000001
vt 0.988159 1.000000
vt 0.961612 1.000000
vt 0.961612 0.000001
vt 0.000000 0.470914
vt 1.000000 0.470914
vt 1.000000 0.503740
vt 0.000000 0.503740
vt 0.961478 0.487849
vt 0.040118 0.487849
vt 0.040118 0.499099
vt 0.961478 0.499099
vt 0.961478 0.511738
vt 0.040118 0.511738
vt 1.000000 0.490603
vt -0.000000 0.490603
vt -0.000000 0.477445
vt 1.000000 0.477445
vt 0.098686 0.476388
vt 0.028285 0.476388
vt 0.028285 0.513297
vt 0.098686 0.513297
vn -0.000000 -0.000000 1.000000
vn -0.000000 -0.000000 1.000000
vn -0.000000 -0.000000 1.000000
vn -0.000000 -0.000000 1.000000
vn 0.000000 1.000000 0.000000
vn 0.000000 1.000000 0.000000
vn 0.000000 1.000000 0.000000
vn 0.000000 1.000000 0.000000
vn 0.000000 -1.000000 0.000000
vn 0.000000 -1.000000 0.000000
vn 0.000000 -1.000000 0.000000
vn 0.000000 -1.000000 0.000000
vn -0.000000 -0.000000 1.000000
vn -0.000000 -0.000000 1.000000
vn -0.000000 -0.000000 1.000000
vn -0.000000 -0.000000 1.000000
vn -0.000000 -0.000000 1.000000
vn -0.000000 -0.000000 1.000000
vn -0.000000 -0.000000 1.000000
vn -0.000000 -0.000000 1.000000
vn 0.000000 0.847299 -0.531116
vn 0.000000 0.847299 -0.531116
vn 0.000000 0.847299 -0.531116
vn 0.000000 0.847299 -0.531116
vn -0.000000 -0.000000 1.000000
vn -0.000000 -0.000000 1.000000
vn -0.000000 -0.000000 1.000000
vn -0.000000 -0.000000 1.000000
vn 0.000000 1.000000 0.000000
vn 0.000000 1.000000 0.000000
vn 0.000000 1.000000 0.000000
vn 0.000000 1.000000 0.000000
vn 0.000000 0.000000 -1.000000
vn 0.000000 0.000000 -1.000000
vn 0.000000 0.000000 -1.000000
vn 0.000000 0.000000 -1.000000
vn 0.000000 -1.000000 0.000000
vn 0.000000 -1.000000 0.000000
vn 0.000000 -1.000000 0.000000
vn 0.000000 -1.000000 0.000000
vn 1.000000 0.000000 0.000000
vn 1.000000 0.000000 0.000000
vn 1.000000 0.000000 0.000000
vn 1.000000 0.000000 0.000000
vn -1.000000 0.000000 0.000000
vn -1.000000 0.000000 0.000000
vn -1.000000 0.000000 0.000000
vn -1.000000 0.000000 0.000000
vn 0.000001 -1.000000 0.000000
vn 0.000001 -1.000000 0.000000
vn 0.000001 -1.000000 0.000000
vn 0.000001 -1.000000 0.000000
vn -1.000000 0.000002 0.000000
vn -1.000000 0.000002 0.000000
vn -1.000000 0.000002 0.000000
vn -1.000000 0.000002 0.000000
vn 0.000000 1.000000 0.000000
vn 0.000000 1.000000 0.000000
vn 0.000000 1.000000 0.000000
vn 0.000000 1.000000 0.000000
vn 1.000000 0.000001 0.000000
vn 1.000000 0.000001 0.000000
vn 1.000000 0.000001 0.000000
vn 1.000000 0.000001 0.000000
vn -0.000000 -0.000000 1.000000
vn -0.000000 -0.000000 1.000000
vn -0.000000 -0.000000 1.000000
vn -0.000000 -0.000000 1.000000
vn -0.000000 -0.000000 1.000000
vn -0.000000 -0.000000 1.000000
vn -0.000000 -0.000000 1.000000
vn -0.000000 -0.000000 1.000000
vn -0.000000 -0.000000 1.000000
vn -0.000000 -0.000000 1.000000
vn -0.000000 -0.000000 1.000000
vn -0.000000 -0.000000 1.000000
vn -0.000000 -0.000000 1.000000
vn -0.000000 -0.000000 1.000000
vn -0.000000 -0.000000 1.000000
vn -0.000000 -0.000000 1.000000
vn 0.000001 1.000000 0.000000
vn 0.000001 1.000000 0.000000
vn 0.000001 1.000000 0.000000
vn 0.000001 1.000000 0.000000
vn 1.000000 0.000000 0.000000
vn 1.000000 0.000000 0.000000
vn 1.000000 0.000000 0.000000
vn 1.000000 0.000000 0.000000
vn 0.000000 -1.000000 0.000000
vn 0.000000 -1.000000 0.000000
vn 0.000000 -1.000000 0.000000
vn 0.000000 -1.000000 0.000000
vn -1.000000 0.000001 0.000000
vn -1.000000 0.000001 0.000000
vn -1.000000 0.000001 0.000000
vn -1.000000 0.000001 0.000000
vn -0.000000 -0.000000 1.000000
vn -0.000000 -0.000000 1.000000
vn -0.000000 -0.000000 1.000000
vn -0.000000 -0.000000 1.000000
vn 0.000000 -1.000000 0.000000
vn 0.000000 -1.000000 0.000000
vn 0.000000 -1.000000 0.000000
vn 0.000000 -1.000000 0.000000
vn -0.000000 -0.000000 1.000000
vn -0.000000 -0.000000 1.000000
vn -0.000000 -0.000000 1.000000
vn -0.000000 -0.000000 1.000000
vn -1.000000 0.000000 0.000000
vn -1.000000 0.000000 0.000000
vn -1.000000 0.000000 0.000000
vn -1.000000 0.000000 0.000000
vn -0.000000 -0.000000 1.000000
vn -0.000000 -0.000000 1.000000
vn -0.000000 -0.000000 1.000000
vn -0.000000 -0.000000 1.000000
vn 1.000000 0.000000 0.000000
vn 1.000000 0.000000 0.000000
vn 1.000000 0.000000 0.000000
vn 1.000000 0.000000 0.000000
vn -0.000000 -0.000000 1.000000
vn -0.000000 -0.000000 1.000000
vn -0.000000 -0.000000 1.000000
vn -0.000000 -0.000000 1.000000
vn 0.000000 1.000000 0.000000
vn 0.000000 1.000000 0.000000
vn 0.000000 1.000000 0.000000
vn 0.000000 1.000000 0.000000
vn 0.000000 -1.000000 0.000000
vn 0.000000 -1.000000 0.000000
vn 0.000000 -1.000000 0.000000
vn 0.000000 -1.000000 0.000000
vn -0.000000 -0.000000 1.000000
vn -0.000000 -0.000000 1.000000
vn -0.000000 -0.000000 1.000000
vn -0.000000 -0.000000 1.000000
vn -1.000000 0.000000 0.000000
vn -1.000000 0.000000 0.000000
vn -1.000000 0.000000 0.000000
vn -1.000000 0.000000 0.000000
vn -0.000000 -0.000000 1.000000
vn -0.000000 -0.000000 1.000000
vn -0.000000 -0.000000 1.000000
vn -0.000000 -0.000000 1.000000
vn 1.000000 0.000000 0.000000
vn 1.000000 0.000000 0.000000
vn 1.000000 0.000000 0.000000
vn 1.000000 0.000000 0.000000
s off
g polySurface11
usemtl initialShadingGroup
f 1/125/1 2/126/2 3/127/3 4/128/4
f 4/1/5 3/2/6 5/3/7 6/4/8
f 7/5/9 8/6/10 2/7/11 1/8/12
f 9/9/13 12/10/14 11/11/15 10/12/16
f 13/13/17 16/14/18 15/15/19 14/16/20
f 12/10/21 11/11/22 14/16/23 13/13/24
f 17/79/25 18/80/26 19/81/27 20/82/28
f 20/29/29 19/30/30 21/31/31 22/32/32
f 22/22/33 21/21/34 23/23/35 24/24/36
f 24/33/37 23/34/38 18/35/39 17/36/40
f 18/17/41 23/18/42 21/19/43 19/20/44
f 24/139/45 17/140/46 20/141/47 22/142/48
f 25/25/49 26/26/50 27/27/51 28/28/52
f 29/117/53 25/118/54 28/119/55 30/120/56
f 31/135/57 29/136/58 30/137/59 32/138/60
f 26/121/61 31/122/62 32/123/63 27/124/64
f 28/83/65 27/84/66 33/85/67 34/86/68
f 30/93/69 28/94/70 34/95/71 35/96/72
f 32/43/73 30/44/74 35/87/75 36/88/76
f 27/97/77 32/98/78 36/99/79 33/100/80
f 34/37/81 33/38/82 37/39/83 38/40/84
f 35/51/85 34/52/86 38/57/87 39/58/88
f 36/41/89 35/42/90 39/45/91 40/46/92
f 33/71/93 36/72/94 40/77/95 37/78/96
f 41/89/97 42/90/98 43/91/99 44/92/100
f 45/63/101 46/64/102 42/129/103 41/130/104
f 47/47/105 48/48/106 49/49/107 50/50/108
f 51/101/109 52/102/110 48/103/111 47/104/112
f 53/53/113 54/54/114 55/55/115 56/56/116
f 57/105/117 58/106/118 54/107/119 53/108/120
f 59/59/121 60/60/122 61/61/123 62/62/124
f 62/131/125 61/132/126 63/133/127 64/134/128
f 65/65/129 66/66/130 60/60/131 59/59/132
f 67/67/133 68/68/134 69/69/135 70/70/136
f 71/109/137 72/110/138 68/111/139 67/112/140
f 73/73/141 74/74/142 75/75/143 76/76/144
f 77/113/145 78/114/146 74/115/147 73/116/148
